<mxfile host="drawio-plugin" modified="2021-08-18T00:19:58.852Z" agent="5.0 (Windows NT 6.2; Win64; x64) AppleWebKit/537.36 (KHTML, like Gecko) Chrome/89.0.4389.114 Safari/537.36" etag="IBkyR6zW-fspP5mJDjVi" version="14.7.4" type="embed" pages="2"><diagram id="PUS9dt2FsSzNiGEOMLjA" name="Page-1"><mxGraphModel dx="6942" dy="4374" grid="1" gridSize="10" guides="1" tooltips="1" connect="1" arrows="1" fold="1" page="1" pageScale="1" pageWidth="827" pageHeight="1169" background="#283618" math="0" shadow="0"><root><mxCell id="0"/><mxCell id="1" parent="0"/><mxCell id="rWK2ofTDJnI1rJvoRiko-6" style="edgeStyle=orthogonalEdgeStyle;rounded=0;orthogonalLoop=1;jettySize=auto;html=1;endArrow=none;endFill=0;fillColor=#BC6C25;strokeColor=#DDA15E;labelBackgroundColor=#283618;fontColor=#FEFAE0;" parent="1" source="rWK2ofTDJnI1rJvoRiko-1" edge="1"><mxGeometry relative="1" as="geometry"><mxPoint x="200" y="35" as="targetPoint"/></mxGeometry></mxCell><mxCell id="rWK2ofTDJnI1rJvoRiko-24" style="edgeStyle=orthogonalEdgeStyle;rounded=0;jumpSize=9;orthogonalLoop=1;jettySize=auto;html=1;startArrow=none;startFill=0;endArrow=none;endFill=0;sourcePerimeterSpacing=0;targetPerimeterSpacing=8;entryX=0;entryY=0;entryDx=0;entryDy=32;entryPerimeter=0;labelBackgroundColor=#283618;strokeColor=#DDA15E;fontColor=#FEFAE0;" parent="1" source="rWK2ofTDJnI1rJvoRiko-1" target="eZccYVu5luKvhpqjTT1i-90" edge="1"><mxGeometry relative="1" as="geometry"><mxPoint x="-120" y="2806.6666666666665" as="targetPoint"/><Array as="points"><mxPoint x="-125" y="2682"/></Array></mxGeometry></mxCell><mxCell id="rWK2ofTDJnI1rJvoRiko-1" value="&lt;span class=&quot;pl-smi&quot;&gt;ru.tcreator&lt;/span&gt;" style="shape=folder;fontStyle=1;spacingTop=10;tabWidth=40;tabHeight=14;tabPosition=left;html=1;fillColor=#BC6C25;strokeColor=#DDA15E;fontColor=#FEFAE0;" parent="1" vertex="1"><mxGeometry x="-160" y="10" width="70" height="50" as="geometry"/></mxCell><mxCell id="rWK2ofTDJnI1rJvoRiko-12" style="edgeStyle=orthogonalEdgeStyle;orthogonalLoop=1;jettySize=auto;html=1;exitX=0.5;exitY=1;exitDx=0;exitDy=0;entryX=0.5;entryY=0;entryDx=0;entryDy=0;rounded=0;endArrow=none;endFill=0;startArrow=diamond;startFill=0;labelBackgroundColor=#283618;strokeColor=#DDA15E;fontColor=#FEFAE0;" parent="1" source="rWK2ofTDJnI1rJvoRiko-2" target="rWK2ofTDJnI1rJvoRiko-9" edge="1"><mxGeometry relative="1" as="geometry"/></mxCell><mxCell id="rWK2ofTDJnI1rJvoRiko-18" style="edgeStyle=orthogonalEdgeStyle;rounded=0;orthogonalLoop=1;jettySize=auto;html=1;entryX=0.5;entryY=0;entryDx=0;entryDy=0;endArrow=none;endFill=0;startArrow=diamond;startFill=0;targetPerimeterSpacing=8;sourcePerimeterSpacing=0;jumpSize=9;labelBackgroundColor=#283618;strokeColor=#DDA15E;fontColor=#FEFAE0;" parent="1" source="rWK2ofTDJnI1rJvoRiko-2" target="rWK2ofTDJnI1rJvoRiko-14" edge="1"><mxGeometry relative="1" as="geometry"/></mxCell><mxCell id="rWK2ofTDJnI1rJvoRiko-2" value="Start" style="swimlane;fontStyle=0;childLayout=stackLayout;horizontal=1;startSize=26;fillColor=none;horizontalStack=0;resizeParent=1;resizeParentMax=0;resizeLast=0;collapsible=1;marginBottom=0;strokeColor=#DDA15E;fontColor=#FEFAE0;" parent="1" vertex="1"><mxGeometry x="200" y="10" width="140" height="52" as="geometry"/></mxCell><mxCell id="rWK2ofTDJnI1rJvoRiko-3" value="+ main(Srting[] arg) void " style="text;strokeColor=none;fillColor=none;align=left;verticalAlign=top;spacingLeft=4;spacingRight=4;overflow=hidden;rotatable=0;points=[[0,0.5],[1,0.5]];portConstraint=eastwest;fontColor=#FEFAE0;" parent="rWK2ofTDJnI1rJvoRiko-2" vertex="1"><mxGeometry y="26" width="140" height="26" as="geometry"/></mxCell><mxCell id="rWK2ofTDJnI1rJvoRiko-13" style="edgeStyle=orthogonalEdgeStyle;rounded=0;orthogonalLoop=1;jettySize=auto;html=1;entryX=0;entryY=0.5;entryDx=0;entryDy=0;endArrow=none;endFill=0;fillColor=#BC6C25;strokeColor=#DDA15E;labelBackgroundColor=#283618;fontColor=#FEFAE0;" parent="1" source="rWK2ofTDJnI1rJvoRiko-8" target="rWK2ofTDJnI1rJvoRiko-9" edge="1"><mxGeometry relative="1" as="geometry"/></mxCell><mxCell id="rWK2ofTDJnI1rJvoRiko-27" style="edgeStyle=orthogonalEdgeStyle;rounded=0;jumpSize=9;orthogonalLoop=1;jettySize=auto;html=1;startArrow=none;startFill=0;endArrow=none;endFill=0;sourcePerimeterSpacing=0;targetPerimeterSpacing=8;labelBackgroundColor=#283618;strokeColor=#DDA15E;fontColor=#FEFAE0;" parent="1" source="rWK2ofTDJnI1rJvoRiko-8" target="rWK2ofTDJnI1rJvoRiko-1" edge="1"><mxGeometry relative="1" as="geometry"><mxPoint x="-120" y="185" as="targetPoint"/></mxGeometry></mxCell><mxCell id="rWK2ofTDJnI1rJvoRiko-38" style="edgeStyle=orthogonalEdgeStyle;rounded=0;jumpSize=9;orthogonalLoop=1;jettySize=auto;html=1;startArrow=none;startFill=0;endArrow=none;endFill=0;sourcePerimeterSpacing=0;targetPerimeterSpacing=0;entryX=-0.013;entryY=0.11;entryDx=0;entryDy=0;entryPerimeter=0;fillColor=#BC6C25;strokeColor=#DDA15E;labelBackgroundColor=#283618;fontColor=#FEFAE0;" parent="1" source="rWK2ofTDJnI1rJvoRiko-8" target="rWK2ofTDJnI1rJvoRiko-48" edge="1"><mxGeometry relative="1" as="geometry"><mxPoint x="140" y="262" as="targetPoint"/></mxGeometry></mxCell><mxCell id="rWK2ofTDJnI1rJvoRiko-8" value="&lt;div&gt;serv&lt;/div&gt;&lt;div&gt;&lt;br&gt;&lt;/div&gt;" style="shape=folder;fontStyle=1;spacingTop=10;tabWidth=40;tabHeight=14;tabPosition=left;html=1;fillColor=#BC6C25;strokeColor=#DDA15E;fontColor=#FEFAE0;" parent="1" vertex="1"><mxGeometry x="40" y="160" width="70" height="50" as="geometry"/></mxCell><mxCell id="rWK2ofTDJnI1rJvoRiko-9" value="Server" style="swimlane;fontStyle=0;childLayout=stackLayout;horizontal=1;startSize=26;fillColor=none;horizontalStack=0;resizeParent=1;resizeParentMax=0;resizeLast=0;collapsible=1;marginBottom=0;strokeColor=#DDA15E;fontColor=#FEFAE0;" parent="1" vertex="1"><mxGeometry x="200" y="159" width="140" height="52" as="geometry"/></mxCell><mxCell id="rWK2ofTDJnI1rJvoRiko-10" value="+ run() : void" style="text;strokeColor=none;fillColor=none;align=left;verticalAlign=top;spacingLeft=4;spacingRight=4;overflow=hidden;rotatable=0;points=[[0,0.5],[1,0.5]];portConstraint=eastwest;fontColor=#FEFAE0;" parent="rWK2ofTDJnI1rJvoRiko-9" vertex="1"><mxGeometry y="26" width="140" height="26" as="geometry"/></mxCell><mxCell id="eZccYVu5luKvhpqjTT1i-51" style="edgeStyle=orthogonalEdgeStyle;rounded=0;orthogonalLoop=1;jettySize=auto;html=1;startArrow=none;startFill=0;endArrow=diamond;endFill=0;strokeColor=#DDA15E;labelBackgroundColor=#283618;fontColor=#FEFAE0;" parent="1" source="rWK2ofTDJnI1rJvoRiko-14" edge="1"><mxGeometry relative="1" as="geometry"><mxPoint x="160" y="1745" as="targetPoint"/><Array as="points"><mxPoint x="1590" y="2020"/><mxPoint x="140" y="2020"/><mxPoint x="140" y="1745"/></Array></mxGeometry></mxCell><mxCell id="eZccYVu5luKvhpqjTT1i-107" style="edgeStyle=orthogonalEdgeStyle;rounded=0;orthogonalLoop=1;jettySize=auto;html=1;startArrow=none;startFill=0;endArrow=classic;endFill=1;strokeColor=#DDA15E;labelBackgroundColor=#283618;fontColor=#FEFAE0;" parent="1" source="rWK2ofTDJnI1rJvoRiko-14" edge="1"><mxGeometry relative="1" as="geometry"><mxPoint x="159.99999999999955" y="1710" as="targetPoint"/><Array as="points"><mxPoint x="1570" y="700"/><mxPoint x="-60" y="700"/><mxPoint x="-60" y="1710"/></Array></mxGeometry></mxCell><mxCell id="rWK2ofTDJnI1rJvoRiko-14" value="Log" style="swimlane;fontStyle=1;align=center;verticalAlign=top;childLayout=stackLayout;horizontal=1;startSize=30;horizontalStack=0;resizeParent=1;resizeParentMax=0;resizeLast=0;collapsible=1;marginBottom=0;fillColor=#BC6C25;strokeColor=#DDA15E;fontColor=#FEFAE0;" parent="1" vertex="1"><mxGeometry x="1510" y="540" width="160" height="56" as="geometry"/></mxCell><mxCell id="rWK2ofTDJnI1rJvoRiko-15" value="+ logger : Logger" style="text;strokeColor=none;fillColor=none;align=left;verticalAlign=top;spacingLeft=4;spacingRight=4;overflow=hidden;rotatable=0;points=[[0,0.5],[1,0.5]];portConstraint=eastwest;fontColor=#FEFAE0;" parent="rWK2ofTDJnI1rJvoRiko-14" vertex="1"><mxGeometry y="30" width="160" height="26" as="geometry"/></mxCell><mxCell id="rWK2ofTDJnI1rJvoRiko-21" style="edgeStyle=orthogonalEdgeStyle;rounded=0;jumpSize=9;orthogonalLoop=1;jettySize=auto;html=1;entryX=0;entryY=0.5;entryDx=0;entryDy=0;startArrow=none;startFill=0;endArrow=none;endFill=0;sourcePerimeterSpacing=0;targetPerimeterSpacing=8;fillColor=#BC6C25;strokeColor=#DDA15E;labelBackgroundColor=#283618;fontColor=#FEFAE0;" parent="1" source="rWK2ofTDJnI1rJvoRiko-19" target="rWK2ofTDJnI1rJvoRiko-15" edge="1"><mxGeometry relative="1" as="geometry"><Array as="points"><mxPoint x="1510" y="570"/></Array></mxGeometry></mxCell><mxCell id="rWK2ofTDJnI1rJvoRiko-26" style="edgeStyle=orthogonalEdgeStyle;rounded=0;jumpSize=9;orthogonalLoop=1;jettySize=auto;html=1;startArrow=none;startFill=0;endArrow=none;endFill=0;sourcePerimeterSpacing=0;targetPerimeterSpacing=8;labelBackgroundColor=#283618;strokeColor=#DDA15E;fontColor=#FEFAE0;" parent="1" source="rWK2ofTDJnI1rJvoRiko-19" target="rWK2ofTDJnI1rJvoRiko-1" edge="1"><mxGeometry relative="1" as="geometry"><mxPoint x="-120" y="579" as="targetPoint"/></mxGeometry></mxCell><mxCell id="rWK2ofTDJnI1rJvoRiko-19" value="&lt;div&gt;log&lt;br&gt;&lt;/div&gt;" style="shape=folder;fontStyle=1;spacingTop=10;tabWidth=40;tabHeight=14;tabPosition=left;html=1;fillColor=#BC6C25;strokeColor=#DDA15E;fontColor=#FEFAE0;" parent="1" vertex="1"><mxGeometry x="40" y="554" width="70" height="50" as="geometry"/></mxCell><mxCell id="rWK2ofTDJnI1rJvoRiko-33" style="edgeStyle=orthogonalEdgeStyle;rounded=0;jumpSize=9;orthogonalLoop=1;jettySize=auto;html=1;startArrow=none;startFill=0;endArrow=block;endFill=0;sourcePerimeterSpacing=0;targetPerimeterSpacing=8;entryX=-0.005;entryY=0.109;entryDx=0;entryDy=0;entryPerimeter=0;labelBackgroundColor=#283618;strokeColor=#DDA15E;fontColor=#FEFAE0;" parent="1" source="rWK2ofTDJnI1rJvoRiko-29" target="rWK2ofTDJnI1rJvoRiko-31" edge="1"><mxGeometry relative="1" as="geometry"><mxPoint x="566.6399999999999" y="275.01200000000017" as="targetPoint"/><Array as="points"><mxPoint x="450" y="266"/><mxPoint x="567" y="265"/></Array></mxGeometry></mxCell><mxCell id="eZccYVu5luKvhpqjTT1i-101" style="edgeStyle=orthogonalEdgeStyle;rounded=0;orthogonalLoop=1;jettySize=auto;html=1;entryX=0;entryY=0.25;entryDx=0;entryDy=0;startArrow=none;startFill=0;endArrow=none;endFill=0;strokeColor=#DDA15E;labelBackgroundColor=#283618;fontColor=#FEFAE0;" parent="1" source="rWK2ofTDJnI1rJvoRiko-29" target="eZccYVu5luKvhpqjTT1i-91" edge="1"><mxGeometry relative="1" as="geometry"><Array as="points"><mxPoint x="350" y="1150"/><mxPoint x="840" y="1150"/><mxPoint x="840" y="2662"/></Array></mxGeometry></mxCell><mxCell id="rWK2ofTDJnI1rJvoRiko-29" value="ClientHandler" style="swimlane;fontStyle=0;childLayout=stackLayout;horizontal=1;startSize=26;fillColor=none;horizontalStack=0;resizeParent=1;resizeParentMax=0;resizeLast=0;collapsible=1;marginBottom=0;strokeColor=#DDA15E;fontColor=#FEFAE0;" parent="1" vertex="1"><mxGeometry x="200" y="240" width="160" height="70" as="geometry"><mxRectangle x="200" y="240" width="70" height="26" as="alternateBounds"/></mxGeometry></mxCell><mxCell id="rWK2ofTDJnI1rJvoRiko-48" value="+ run() : void&#10;+getNickName() : String" style="text;strokeColor=none;fillColor=none;align=left;verticalAlign=top;spacingLeft=4;spacingRight=4;overflow=hidden;rotatable=0;points=[[0,0.5],[1,0.5]];portConstraint=eastwest;fontColor=#FEFAE0;" parent="rWK2ofTDJnI1rJvoRiko-29" vertex="1"><mxGeometry y="26" width="160" height="44" as="geometry"/></mxCell><mxCell id="eZccYVu5luKvhpqjTT1i-50" style="edgeStyle=orthogonalEdgeStyle;rounded=0;orthogonalLoop=1;jettySize=auto;html=1;startArrow=diamond;startFill=0;endArrow=none;endFill=0;strokeColor=#DDA15E;labelBackgroundColor=#283618;fontColor=#FEFAE0;" parent="1" source="rWK2ofTDJnI1rJvoRiko-31" edge="1"><mxGeometry relative="1" as="geometry"><mxPoint x="1590" y="120" as="targetPoint"/><Array as="points"><mxPoint x="1590" y="320"/></Array></mxGeometry></mxCell><mxCell id="eZccYVu5luKvhpqjTT1i-103" style="edgeStyle=orthogonalEdgeStyle;rounded=0;orthogonalLoop=1;jettySize=auto;html=1;entryX=0.5;entryY=0;entryDx=0;entryDy=0;startArrow=diamondThin;startFill=1;endArrow=none;endFill=0;strokeColor=#DDA15E;labelBackgroundColor=#283618;fontColor=#FEFAE0;" parent="1" source="rWK2ofTDJnI1rJvoRiko-31" target="eZccYVu5luKvhpqjTT1i-71" edge="1"><mxGeometry relative="1" as="geometry"/></mxCell><mxCell id="rWK2ofTDJnI1rJvoRiko-31" value="ServerHandlerAbdtract" style="swimlane;fontStyle=2;childLayout=stackLayout;horizontal=1;startSize=26;fillColor=none;horizontalStack=0;resizeParent=1;resizeParentMax=0;resizeLast=0;collapsible=1;marginBottom=0;strokeColor=#DDA15E;fontColor=#FEFAE0;" parent="1" vertex="1"><mxGeometry x="900" y="250" width="230" height="140" as="geometry"/></mxCell><mxCell id="rWK2ofTDJnI1rJvoRiko-47" value="-ServerHandlerAbstract(Socket) : void&#10;&#10;+close() : void+writeOut(String) : void&#10;+sendMessageToAllUser(String) : void&#10;+removeMeInBase(ClientHandler) : void&#10;+sendTOUser(String, string) : void&#10;+setDisconnected() : void&#10;" style="text;strokeColor=none;fillColor=none;align=left;verticalAlign=top;spacingLeft=4;spacingRight=4;overflow=hidden;rotatable=0;points=[[0,0.5],[1,0.5]];portConstraint=eastwest;fontColor=#FEFAE0;" parent="rWK2ofTDJnI1rJvoRiko-31" vertex="1"><mxGeometry y="26" width="230" height="114" as="geometry"/></mxCell><mxCell id="rWK2ofTDJnI1rJvoRiko-36" style="edgeStyle=orthogonalEdgeStyle;rounded=0;jumpSize=9;orthogonalLoop=1;jettySize=auto;html=1;entryX=0.5;entryY=1;entryDx=0;entryDy=0;entryPerimeter=0;startArrow=none;startFill=0;endArrow=none;endFill=0;sourcePerimeterSpacing=0;targetPerimeterSpacing=8;fillColor=#BC6C25;strokeColor=#DDA15E;labelBackgroundColor=#283618;fontColor=#FEFAE0;" parent="1" source="rWK2ofTDJnI1rJvoRiko-35" target="rWK2ofTDJnI1rJvoRiko-8" edge="1"><mxGeometry relative="1" as="geometry"><Array as="points"><mxPoint x="60" y="331"/><mxPoint x="60" y="210"/></Array></mxGeometry></mxCell><mxCell id="rWK2ofTDJnI1rJvoRiko-37" style="edgeStyle=orthogonalEdgeStyle;rounded=0;jumpSize=9;orthogonalLoop=1;jettySize=auto;html=1;startArrow=none;startFill=0;endArrow=none;endFill=0;sourcePerimeterSpacing=0;targetPerimeterSpacing=8;entryX=0;entryY=0.5;entryDx=0;entryDy=0;labelBackgroundColor=#283618;strokeColor=#DDA15E;fontColor=#FEFAE0;" parent="1" source="rWK2ofTDJnI1rJvoRiko-35" target="rWK2ofTDJnI1rJvoRiko-47" edge="1"><mxGeometry relative="1" as="geometry"><mxPoint x="641" y="304" as="targetPoint"/><Array as="points"><mxPoint x="560" y="331"/><mxPoint x="560" y="333"/></Array></mxGeometry></mxCell><mxCell id="rWK2ofTDJnI1rJvoRiko-35" value="" style="line;strokeWidth=1;fillColor=#BC6C25;align=left;verticalAlign=middle;spacingTop=-1;spacingLeft=3;spacingRight=3;rotatable=0;labelPosition=right;points=[];portConstraint=eastwest;strokeColor=#DDA15E;fontColor=#FEFAE0;labelBackgroundColor=#283618;" parent="1" vertex="1"><mxGeometry x="80" y="330" width="320" height="2" as="geometry"/></mxCell><mxCell id="rWK2ofTDJnI1rJvoRiko-41" value="«interface»&lt;br&gt;&lt;div&gt;&lt;b&gt;Runnuble&lt;/b&gt;&lt;/div&gt;" style="html=1;fillColor=#BC6C25;strokeColor=#DDA15E;fontColor=#FEFAE0;" parent="1" vertex="1"><mxGeometry x="650" y="-100" width="110" height="60" as="geometry"/></mxCell><mxCell id="rWK2ofTDJnI1rJvoRiko-44" style="edgeStyle=orthogonalEdgeStyle;rounded=0;jumpSize=9;orthogonalLoop=1;jettySize=auto;html=1;dashed=1;startArrow=none;startFill=0;endArrow=classic;endFill=1;sourcePerimeterSpacing=0;targetPerimeterSpacing=0;entryX=0;entryY=0.5;entryDx=0;entryDy=0;labelBackgroundColor=#283618;strokeColor=#DDA15E;fontColor=#FEFAE0;" parent="1" target="rWK2ofTDJnI1rJvoRiko-41" edge="1"><mxGeometry relative="1" as="geometry"><mxPoint x="460" y="-60" as="targetPoint"/><mxPoint x="360" y="279" as="sourcePoint"/><Array as="points"><mxPoint x="420" y="279"/><mxPoint x="420" y="-70"/></Array></mxGeometry></mxCell><mxCell id="rWK2ofTDJnI1rJvoRiko-49" style="edgeStyle=orthogonalEdgeStyle;rounded=0;jumpSize=9;orthogonalLoop=1;jettySize=auto;html=1;startArrow=diamond;startFill=0;endArrow=none;endFill=0;sourcePerimeterSpacing=0;targetPerimeterSpacing=0;labelBackgroundColor=#283618;strokeColor=#DDA15E;fontColor=#FEFAE0;" parent="1" source="rWK2ofTDJnI1rJvoRiko-48" edge="1"><mxGeometry relative="1" as="geometry"><mxPoint x="1590" y="270" as="targetPoint"/><Array as="points"><mxPoint x="390" y="288"/><mxPoint x="390" y="450"/><mxPoint x="1590" y="450"/></Array></mxGeometry></mxCell><mxCell id="eZccYVu5luKvhpqjTT1i-3" style="edgeStyle=orthogonalEdgeStyle;rounded=0;orthogonalLoop=1;jettySize=auto;html=1;endArrow=none;endFill=0;labelBackgroundColor=#283618;strokeColor=#DDA15E;fontColor=#FEFAE0;" parent="1" source="rWK2ofTDJnI1rJvoRiko-51" target="rWK2ofTDJnI1rJvoRiko-1" edge="1"><mxGeometry relative="1" as="geometry"/></mxCell><mxCell id="rWK2ofTDJnI1rJvoRiko-51" value="enums" style="shape=folder;fontStyle=1;spacingTop=10;tabWidth=40;tabHeight=14;tabPosition=left;html=1;fillColor=#BC6C25;strokeColor=#DDA15E;fontColor=#FEFAE0;" parent="1" vertex="1"><mxGeometry x="40" y="790" width="70" height="50" as="geometry"/></mxCell><mxCell id="eZccYVu5luKvhpqjTT1i-5" style="edgeStyle=orthogonalEdgeStyle;rounded=0;orthogonalLoop=1;jettySize=auto;html=1;endArrow=none;endFill=0;labelBackgroundColor=#283618;strokeColor=#DDA15E;fontColor=#FEFAE0;" parent="1" source="rWK2ofTDJnI1rJvoRiko-54" edge="1"><mxGeometry relative="1" as="geometry"><mxPoint x="290" y="775" as="targetPoint"/></mxGeometry></mxCell><mxCell id="eZccYVu5luKvhpqjTT1i-64" style="edgeStyle=orthogonalEdgeStyle;rounded=0;orthogonalLoop=1;jettySize=auto;html=1;entryX=0;entryY=0.5;entryDx=0;entryDy=0;startArrow=none;startFill=0;endArrow=none;endFill=0;strokeColor=#DDA15E;fillColor=#BC6C25;labelBackgroundColor=#283618;fontColor=#FEFAE0;" parent="1" source="rWK2ofTDJnI1rJvoRiko-54" target="eZccYVu5luKvhpqjTT1i-62" edge="1"><mxGeometry relative="1" as="geometry"><Array as="points"><mxPoint x="140" y="775"/><mxPoint x="140" y="875"/></Array></mxGeometry></mxCell><mxCell id="rWK2ofTDJnI1rJvoRiko-54" value="Name" style="html=1;fillColor=#BC6C25;strokeColor=#DDA15E;fontColor=#FEFAE0;" parent="1" vertex="1"><mxGeometry x="160" y="760" width="110" height="30" as="geometry"/></mxCell><mxCell id="rWK2ofTDJnI1rJvoRiko-60" style="edgeStyle=orthogonalEdgeStyle;rounded=0;jumpSize=9;orthogonalLoop=1;jettySize=auto;html=1;startArrow=none;startFill=0;endArrow=none;endFill=0;sourcePerimeterSpacing=0;targetPerimeterSpacing=0;entryX=0.681;entryY=1;entryDx=0;entryDy=0;entryPerimeter=0;labelBackgroundColor=#283618;strokeColor=#DDA15E;fontColor=#FEFAE0;" parent="1" source="rWK2ofTDJnI1rJvoRiko-55" target="rWK2ofTDJnI1rJvoRiko-48" edge="1"><mxGeometry relative="1" as="geometry"><mxPoint x="310" y="530" as="targetPoint"/><Array as="points"><mxPoint x="290" y="825"/><mxPoint x="290" y="310"/></Array></mxGeometry></mxCell><mxCell id="eZccYVu5luKvhpqjTT1i-65" style="edgeStyle=orthogonalEdgeStyle;rounded=0;orthogonalLoop=1;jettySize=auto;html=1;entryX=0;entryY=0;entryDx=70;entryDy=32;entryPerimeter=0;startArrow=none;startFill=0;endArrow=none;endFill=0;strokeColor=#DDA15E;fillColor=#BC6C25;labelBackgroundColor=#283618;fontColor=#FEFAE0;" parent="1" source="rWK2ofTDJnI1rJvoRiko-55" target="rWK2ofTDJnI1rJvoRiko-51" edge="1"><mxGeometry relative="1" as="geometry"/></mxCell><mxCell id="rWK2ofTDJnI1rJvoRiko-55" value="ServAnswer" style="html=1;fillColor=#BC6C25;strokeColor=#DDA15E;fontColor=#FEFAE0;" parent="1" vertex="1"><mxGeometry x="160" y="810" width="110" height="30" as="geometry"/></mxCell><mxCell id="eZccYVu5luKvhpqjTT1i-1" style="edgeStyle=orthogonalEdgeStyle;rounded=0;orthogonalLoop=1;jettySize=auto;html=1;endArrow=none;endFill=0;labelBackgroundColor=#283618;strokeColor=#DDA15E;fontColor=#FEFAE0;" parent="1" source="rWK2ofTDJnI1rJvoRiko-61" target="rWK2ofTDJnI1rJvoRiko-1" edge="1"><mxGeometry relative="1" as="geometry"><mxPoint x="-130" y="1055" as="targetPoint"/></mxGeometry></mxCell><mxCell id="rWK2ofTDJnI1rJvoRiko-61" value="entity" style="shape=folder;fontStyle=1;spacingTop=10;tabWidth=40;tabHeight=14;tabPosition=left;html=1;fillColor=#BC6C25;strokeColor=#DDA15E;fontColor=#FEFAE0;" parent="1" vertex="1"><mxGeometry x="40" y="1030" width="70" height="50" as="geometry"/></mxCell><mxCell id="eZccYVu5luKvhpqjTT1i-2" style="edgeStyle=orthogonalEdgeStyle;rounded=0;orthogonalLoop=1;jettySize=auto;html=1;endArrow=none;endFill=0;entryX=0.5;entryY=1;entryDx=0;entryDy=0;entryPerimeter=0;labelBackgroundColor=#283618;strokeColor=#DDA15E;fontColor=#FEFAE0;" parent="1" source="rWK2ofTDJnI1rJvoRiko-62" target="rWK2ofTDJnI1rJvoRiko-1" edge="1"><mxGeometry relative="1" as="geometry"><mxPoint x="-130" y="1275" as="targetPoint"/></mxGeometry></mxCell><mxCell id="eZccYVu5luKvhpqjTT1i-61" style="edgeStyle=orthogonalEdgeStyle;rounded=0;orthogonalLoop=1;jettySize=auto;html=1;entryX=0.514;entryY=0.977;entryDx=0;entryDy=0;entryPerimeter=0;startArrow=none;startFill=0;endArrow=none;endFill=0;strokeColor=#DDA15E;fillColor=#BC6C25;labelBackgroundColor=#283618;fontColor=#FEFAE0;" parent="1" source="rWK2ofTDJnI1rJvoRiko-62" target="eZccYVu5luKvhpqjTT1i-57" edge="1"><mxGeometry relative="1" as="geometry"><Array as="points"><mxPoint x="90" y="1340"/><mxPoint x="618" y="1340"/></Array></mxGeometry></mxCell><mxCell id="rWK2ofTDJnI1rJvoRiko-62" value="command" style="shape=folder;fontStyle=1;spacingTop=10;tabWidth=40;tabHeight=14;tabPosition=left;html=1;fillColor=#BC6C25;strokeColor=#DDA15E;fontColor=#FEFAE0;" parent="1" vertex="1"><mxGeometry x="40" y="1250" width="70" height="50" as="geometry"/></mxCell><mxCell id="eZccYVu5luKvhpqjTT1i-99" style="edgeStyle=orthogonalEdgeStyle;rounded=0;orthogonalLoop=1;jettySize=auto;html=1;startArrow=diamond;startFill=0;endArrow=none;endFill=0;strokeColor=#DDA15E;labelBackgroundColor=#283618;fontColor=#FEFAE0;" parent="1" source="rWK2ofTDJnI1rJvoRiko-63" edge="1"><mxGeometry relative="1" as="geometry"><mxPoint x="780" y="710" as="targetPoint"/><Array as="points"><mxPoint x="990" y="1065"/><mxPoint x="990" y="710"/></Array></mxGeometry></mxCell><mxCell id="rWK2ofTDJnI1rJvoRiko-63" value="Message" style="swimlane;fontStyle=0;childLayout=stackLayout;horizontal=1;startSize=26;fillColor=none;horizontalStack=0;resizeParent=1;resizeParentMax=0;resizeLast=0;collapsible=1;marginBottom=0;strokeColor=#DDA15E;fontColor=#FEFAE0;" parent="1" vertex="1"><mxGeometry x="700" y="1030" width="210" height="70" as="geometry"><mxRectangle x="200" y="240" width="70" height="26" as="alternateBounds"/></mxGeometry></mxCell><mxCell id="rWK2ofTDJnI1rJvoRiko-64" value="+Message(String, String) : Message" style="text;strokeColor=none;fillColor=none;align=left;verticalAlign=top;spacingLeft=4;spacingRight=4;overflow=hidden;rotatable=0;points=[[0,0.5],[1,0.5]];portConstraint=eastwest;fontColor=#FEFAE0;" parent="rWK2ofTDJnI1rJvoRiko-63" vertex="1"><mxGeometry y="26" width="210" height="44" as="geometry"/></mxCell><mxCell id="rWK2ofTDJnI1rJvoRiko-67" style="edgeStyle=orthogonalEdgeStyle;rounded=0;jumpSize=9;orthogonalLoop=1;jettySize=auto;html=1;entryX=0.5;entryY=0;entryDx=0;entryDy=0;startArrow=none;startFill=0;endArrow=diamond;endFill=1;sourcePerimeterSpacing=0;targetPerimeterSpacing=0;labelBackgroundColor=#283618;strokeColor=#DDA15E;fontColor=#FEFAE0;" parent="1" source="rWK2ofTDJnI1rJvoRiko-65" target="rWK2ofTDJnI1rJvoRiko-63" edge="1"><mxGeometry relative="1" as="geometry"/></mxCell><mxCell id="eZccYVu5luKvhpqjTT1i-10" style="edgeStyle=orthogonalEdgeStyle;orthogonalLoop=1;jettySize=auto;html=1;endArrow=none;endFill=0;rounded=0;entryX=0.793;entryY=0.996;entryDx=0;entryDy=0;entryPerimeter=0;labelBackgroundColor=#283618;strokeColor=#DDA15E;fontColor=#FEFAE0;" parent="1" source="rWK2ofTDJnI1rJvoRiko-65" target="rWK2ofTDJnI1rJvoRiko-48" edge="1"><mxGeometry relative="1" as="geometry"><mxPoint x="310" y="630" as="targetPoint"/><Array as="points"><mxPoint x="780" y="615"/><mxPoint x="270" y="615"/><mxPoint x="270" y="310"/></Array></mxGeometry></mxCell><mxCell id="eZccYVu5luKvhpqjTT1i-104" style="edgeStyle=orthogonalEdgeStyle;rounded=0;orthogonalLoop=1;jettySize=auto;html=1;entryX=0.5;entryY=0;entryDx=0;entryDy=0;startArrow=classic;startFill=1;endArrow=none;endFill=0;strokeColor=#DDA15E;labelBackgroundColor=#283618;fontColor=#FEFAE0;" parent="1" source="rWK2ofTDJnI1rJvoRiko-65" target="rWK2ofTDJnI1rJvoRiko-54" edge="1"><mxGeometry relative="1" as="geometry"><Array as="points"><mxPoint x="410" y="955"/><mxPoint x="410" y="740"/><mxPoint x="215" y="740"/></Array></mxGeometry></mxCell><mxCell id="rWK2ofTDJnI1rJvoRiko-65" value="MessageBuilder" style="swimlane;fontStyle=0;childLayout=stackLayout;horizontal=1;startSize=26;fillColor=none;horizontalStack=0;resizeParent=1;resizeParentMax=0;resizeLast=0;collapsible=1;marginBottom=0;strokeColor=#DDA15E;fontColor=#FEFAE0;" parent="1" vertex="1"><mxGeometry x="700" y="920" width="160" height="70" as="geometry"><mxRectangle x="200" y="240" width="70" height="26" as="alternateBounds"/></mxGeometry></mxCell><mxCell id="rWK2ofTDJnI1rJvoRiko-66" value="+buildMessage() : Message" style="text;strokeColor=none;fillColor=none;align=left;verticalAlign=top;spacingLeft=4;spacingRight=4;overflow=hidden;rotatable=0;points=[[0,0.5],[1,0.5]];portConstraint=eastwest;fontColor=#FEFAE0;" parent="rWK2ofTDJnI1rJvoRiko-65" vertex="1"><mxGeometry y="26" width="160" height="44" as="geometry"/></mxCell><mxCell id="eZccYVu5luKvhpqjTT1i-6" style="edgeStyle=orthogonalEdgeStyle;rounded=0;orthogonalLoop=1;jettySize=auto;html=1;entryX=0;entryY=0;entryDx=70;entryDy=32;entryPerimeter=0;endArrow=none;endFill=0;fillColor=#BC6C25;strokeColor=#DDA15E;labelBackgroundColor=#283618;fontColor=#FEFAE0;" parent="1" source="rWK2ofTDJnI1rJvoRiko-64" target="rWK2ofTDJnI1rJvoRiko-61" edge="1"><mxGeometry relative="1" as="geometry"><Array as="points"><mxPoint x="110" y="1070"/></Array></mxGeometry></mxCell><mxCell id="eZccYVu5luKvhpqjTT1i-7" style="edgeStyle=orthogonalEdgeStyle;rounded=0;orthogonalLoop=1;jettySize=auto;html=1;endArrow=none;endFill=0;fillColor=#BC6C25;strokeColor=#DDA15E;labelBackgroundColor=#283618;fontColor=#FEFAE0;" parent="1" source="rWK2ofTDJnI1rJvoRiko-66" edge="1"><mxGeometry relative="1" as="geometry"><mxPoint x="110" y="1060" as="targetPoint"/><Array as="points"><mxPoint x="660" y="968"/><mxPoint x="660" y="1060"/></Array></mxGeometry></mxCell><mxCell id="eZccYVu5luKvhpqjTT1i-13" style="edgeStyle=orthogonalEdgeStyle;rounded=0;orthogonalLoop=1;jettySize=auto;html=1;entryX=0;entryY=0;entryDx=70;entryDy=32;entryPerimeter=0;endArrow=none;endFill=0;strokeColor=#DDA15E;fillColor=#BC6C25;labelBackgroundColor=#283618;fontColor=#FEFAE0;" parent="1" target="rWK2ofTDJnI1rJvoRiko-62" edge="1"><mxGeometry relative="1" as="geometry"><mxPoint x="220" y="1288" as="sourcePoint"/></mxGeometry></mxCell><mxCell id="eZccYVu5luKvhpqjTT1i-20" style="edgeStyle=orthogonalEdgeStyle;rounded=0;orthogonalLoop=1;jettySize=auto;html=1;entryX=0.75;entryY=1;entryDx=0;entryDy=0;entryPerimeter=0;endArrow=classic;endFill=1;strokeColor=#DDA15E;startArrow=none;startFill=0;labelBackgroundColor=#283618;fontColor=#FEFAE0;" parent="1" source="eZccYVu5luKvhpqjTT1i-16" target="rWK2ofTDJnI1rJvoRiko-48" edge="1"><mxGeometry relative="1" as="geometry"><Array as="points"><mxPoint x="320" y="850"/><mxPoint x="320" y="850"/></Array></mxGeometry></mxCell><mxCell id="eZccYVu5luKvhpqjTT1i-47" style="edgeStyle=orthogonalEdgeStyle;rounded=0;orthogonalLoop=1;jettySize=auto;html=1;startArrow=diamond;startFill=1;endArrow=none;endFill=0;strokeColor=#DDA15E;labelBackgroundColor=#283618;fontColor=#FEFAE0;" parent="1" source="eZccYVu5luKvhpqjTT1i-16" edge="1"><mxGeometry relative="1" as="geometry"><mxPoint x="160" y="1680" as="targetPoint"/><Array as="points"><mxPoint x="335" y="1400"/><mxPoint x="-40" y="1400"/><mxPoint x="-40" y="1650"/><mxPoint x="160" y="1650"/></Array></mxGeometry></mxCell><mxCell id="eZccYVu5luKvhpqjTT1i-16" value="CommandObserver" style="swimlane;fontStyle=1;align=center;verticalAlign=top;childLayout=stackLayout;horizontal=1;startSize=26;horizontalStack=0;resizeParent=1;resizeParentMax=0;resizeLast=0;collapsible=1;marginBottom=0;fillColor=#BC6C25;strokeColor=#DDA15E;fontColor=#FEFAE0;" parent="1" vertex="1"><mxGeometry x="220" y="1240" width="230" height="86" as="geometry"/></mxCell><mxCell id="eZccYVu5luKvhpqjTT1i-17" value="#commandList : List&lt;CommandExecute&gt;" style="text;strokeColor=none;fillColor=none;align=left;verticalAlign=top;spacingLeft=4;spacingRight=4;overflow=hidden;rotatable=0;points=[[0,0.5],[1,0.5]];portConstraint=eastwest;fontColor=#FEFAE0;" parent="eZccYVu5luKvhpqjTT1i-16" vertex="1"><mxGeometry y="26" width="230" height="26" as="geometry"/></mxCell><mxCell id="eZccYVu5luKvhpqjTT1i-18" value="" style="line;strokeWidth=1;fillColor=none;align=left;verticalAlign=middle;spacingTop=-1;spacingLeft=3;spacingRight=3;rotatable=0;labelPosition=right;points=[];portConstraint=eastwest;labelBackgroundColor=#283618;strokeColor=#DDA15E;fontColor=#FEFAE0;" parent="eZccYVu5luKvhpqjTT1i-16" vertex="1"><mxGeometry y="52" width="230" height="8" as="geometry"/></mxCell><mxCell id="eZccYVu5luKvhpqjTT1i-19" value="+processCommand(ProcessData) : void" style="text;strokeColor=none;fillColor=none;align=left;verticalAlign=top;spacingLeft=4;spacingRight=4;overflow=hidden;rotatable=0;points=[[0,0.5],[1,0.5]];portConstraint=eastwest;fontColor=#FEFAE0;" parent="eZccYVu5luKvhpqjTT1i-16" vertex="1"><mxGeometry y="60" width="230" height="26" as="geometry"/></mxCell><mxCell id="eZccYVu5luKvhpqjTT1i-22" style="edgeStyle=orthogonalEdgeStyle;rounded=0;orthogonalLoop=1;jettySize=auto;html=1;entryX=0.5;entryY=1;entryDx=0;entryDy=0;entryPerimeter=0;endArrow=none;endFill=0;strokeColor=#DDA15E;labelBackgroundColor=#283618;fontColor=#FEFAE0;" parent="1" source="eZccYVu5luKvhpqjTT1i-21" target="rWK2ofTDJnI1rJvoRiko-62" edge="1"><mxGeometry relative="1" as="geometry"/></mxCell><mxCell id="eZccYVu5luKvhpqjTT1i-21" value="list" style="shape=folder;fontStyle=1;spacingTop=10;tabWidth=40;tabHeight=14;tabPosition=left;html=1;fillColor=#BC6C25;strokeColor=#DDA15E;fontColor=#FEFAE0;" parent="1" vertex="1"><mxGeometry x="40" y="1460" width="70" height="50" as="geometry"/></mxCell><mxCell id="eZccYVu5luKvhpqjTT1i-39" style="edgeStyle=orthogonalEdgeStyle;rounded=0;orthogonalLoop=1;jettySize=auto;html=1;endArrow=none;endFill=0;strokeColor=#DDA15E;dashed=1;startArrow=classic;startFill=1;labelBackgroundColor=#283618;fontColor=#FEFAE0;" parent="1" source="eZccYVu5luKvhpqjTT1i-23" edge="1"><mxGeometry relative="1" as="geometry"><mxPoint x="480" y="1510" as="targetPoint"/></mxGeometry></mxCell><mxCell id="eZccYVu5luKvhpqjTT1i-105" style="edgeStyle=orthogonalEdgeStyle;rounded=0;orthogonalLoop=1;jettySize=auto;html=1;entryX=0.557;entryY=1.018;entryDx=0;entryDy=0;entryPerimeter=0;startArrow=none;startFill=0;endArrow=classic;endFill=1;strokeColor=#DDA15E;labelBackgroundColor=#283618;fontColor=#FEFAE0;" parent="1" source="eZccYVu5luKvhpqjTT1i-23" target="eZccYVu5luKvhpqjTT1i-19" edge="1"><mxGeometry relative="1" as="geometry"/></mxCell><mxCell id="eZccYVu5luKvhpqjTT1i-23" value="«interface»&lt;br&gt;&lt;div&gt;&lt;b&gt;CommandExecute&lt;/b&gt;&lt;/div&gt;" style="html=1;fillColor=#BC6C25;strokeColor=#DDA15E;fontColor=#FEFAE0;" parent="1" vertex="1"><mxGeometry x="1020" y="1480" width="110" height="60" as="geometry"/></mxCell><mxCell id="eZccYVu5luKvhpqjTT1i-24" value="ListUser" style="swimlane;fontStyle=0;childLayout=stackLayout;horizontal=1;startSize=26;fillColor=none;horizontalStack=0;resizeParent=1;resizeParentMax=0;resizeLast=0;collapsible=1;marginBottom=0;strokeColor=#DDA15E;fontColor=#FEFAE0;" parent="1" vertex="1"><mxGeometry x="220" y="1450" width="210" height="70" as="geometry"><mxRectangle x="200" y="240" width="70" height="26" as="alternateBounds"/></mxGeometry></mxCell><mxCell id="eZccYVu5luKvhpqjTT1i-25" value="+execute(processData) : void" style="text;strokeColor=none;fillColor=none;align=left;verticalAlign=top;spacingLeft=4;spacingRight=4;overflow=hidden;rotatable=0;points=[[0,0.5],[1,0.5]];portConstraint=eastwest;fontColor=#FEFAE0;" parent="eZccYVu5luKvhpqjTT1i-24" vertex="1"><mxGeometry y="26" width="210" height="44" as="geometry"/></mxCell><mxCell id="eZccYVu5luKvhpqjTT1i-38" style="edgeStyle=orthogonalEdgeStyle;rounded=0;orthogonalLoop=1;jettySize=auto;html=1;endArrow=none;endFill=0;strokeColor=#DDA15E;dashed=1;labelBackgroundColor=#283618;fontColor=#FEFAE0;" parent="1" source="eZccYVu5luKvhpqjTT1i-26" edge="1"><mxGeometry relative="1" as="geometry"><mxPoint x="480" y="1575" as="targetPoint"/></mxGeometry></mxCell><mxCell id="eZccYVu5luKvhpqjTT1i-26" value="Exit" style="swimlane;fontStyle=0;childLayout=stackLayout;horizontal=1;startSize=26;fillColor=none;horizontalStack=0;resizeParent=1;resizeParentMax=0;resizeLast=0;collapsible=1;marginBottom=0;strokeColor=#DDA15E;fontColor=#FEFAE0;" parent="1" vertex="1"><mxGeometry x="220" y="1540" width="210" height="70" as="geometry"><mxRectangle x="200" y="240" width="70" height="26" as="alternateBounds"/></mxGeometry></mxCell><mxCell id="eZccYVu5luKvhpqjTT1i-27" value="+execute(processData) : void" style="text;strokeColor=none;fillColor=none;align=left;verticalAlign=top;spacingLeft=4;spacingRight=4;overflow=hidden;rotatable=0;points=[[0,0.5],[1,0.5]];portConstraint=eastwest;fontColor=#FEFAE0;" parent="eZccYVu5luKvhpqjTT1i-26" vertex="1"><mxGeometry y="26" width="210" height="44" as="geometry"/></mxCell><mxCell id="eZccYVu5luKvhpqjTT1i-109" style="edgeStyle=orthogonalEdgeStyle;rounded=0;orthogonalLoop=1;jettySize=auto;html=1;entryX=0.168;entryY=1.086;entryDx=0;entryDy=0;entryPerimeter=0;startArrow=none;startFill=0;endArrow=classic;endFill=1;strokeColor=#DDA15E;labelBackgroundColor=#283618;fontColor=#FEFAE0;" parent="1" source="eZccYVu5luKvhpqjTT1i-28" target="eZccYVu5luKvhpqjTT1i-62" edge="1"><mxGeometry relative="1" as="geometry"><Array as="points"><mxPoint x="178" y="1665"/><mxPoint x="178" y="1260"/></Array></mxGeometry></mxCell><mxCell id="eZccYVu5luKvhpqjTT1i-28" value="Help" style="swimlane;fontStyle=0;childLayout=stackLayout;horizontal=1;startSize=26;fillColor=none;horizontalStack=0;resizeParent=1;resizeParentMax=0;resizeLast=0;collapsible=1;marginBottom=0;strokeColor=#DDA15E;fontColor=#FEFAE0;" parent="1" vertex="1"><mxGeometry x="220" y="1630" width="210" height="70" as="geometry"><mxRectangle x="200" y="240" width="70" height="26" as="alternateBounds"/></mxGeometry></mxCell><mxCell id="eZccYVu5luKvhpqjTT1i-29" value="+execute(processData) : void" style="text;strokeColor=none;fillColor=none;align=left;verticalAlign=top;spacingLeft=4;spacingRight=4;overflow=hidden;rotatable=0;points=[[0,0.5],[1,0.5]];portConstraint=eastwest;fontColor=#FEFAE0;" parent="eZccYVu5luKvhpqjTT1i-28" vertex="1"><mxGeometry y="26" width="210" height="44" as="geometry"/></mxCell><mxCell id="eZccYVu5luKvhpqjTT1i-36" style="edgeStyle=orthogonalEdgeStyle;rounded=0;orthogonalLoop=1;jettySize=auto;html=1;endArrow=none;endFill=0;strokeColor=#DDA15E;dashed=1;labelBackgroundColor=#283618;fontColor=#FEFAE0;" parent="1" source="eZccYVu5luKvhpqjTT1i-30" edge="1"><mxGeometry relative="1" as="geometry"><mxPoint x="480" y="1765" as="targetPoint"/></mxGeometry></mxCell><mxCell id="eZccYVu5luKvhpqjTT1i-30" value="History" style="swimlane;fontStyle=0;childLayout=stackLayout;horizontal=1;startSize=26;fillColor=none;horizontalStack=0;resizeParent=1;resizeParentMax=0;resizeLast=0;collapsible=1;marginBottom=0;strokeColor=#DDA15E;fontColor=#FEFAE0;" parent="1" vertex="1"><mxGeometry x="220" y="1730" width="210" height="70" as="geometry"><mxRectangle x="200" y="240" width="70" height="26" as="alternateBounds"/></mxGeometry></mxCell><mxCell id="eZccYVu5luKvhpqjTT1i-31" value="+execute(processData) : void" style="text;strokeColor=none;fillColor=none;align=left;verticalAlign=top;spacingLeft=4;spacingRight=4;overflow=hidden;rotatable=0;points=[[0,0.5],[1,0.5]];portConstraint=eastwest;fontColor=#FEFAE0;" parent="eZccYVu5luKvhpqjTT1i-30" vertex="1"><mxGeometry y="26" width="210" height="44" as="geometry"/></mxCell><mxCell id="eZccYVu5luKvhpqjTT1i-35" style="edgeStyle=orthogonalEdgeStyle;rounded=0;orthogonalLoop=1;jettySize=auto;html=1;endArrow=none;endFill=0;strokeColor=#DDA15E;dashed=1;labelBackgroundColor=#283618;fontColor=#FEFAE0;" parent="1" source="eZccYVu5luKvhpqjTT1i-32" target="eZccYVu5luKvhpqjTT1i-25" edge="1"><mxGeometry relative="1" as="geometry"><mxPoint x="490" y="1630" as="targetPoint"/><Array as="points"><mxPoint x="480" y="1865"/><mxPoint x="480" y="1498"/></Array></mxGeometry></mxCell><mxCell id="eZccYVu5luKvhpqjTT1i-32" value="SendTo" style="swimlane;fontStyle=0;childLayout=stackLayout;horizontal=1;startSize=26;fillColor=none;horizontalStack=0;resizeParent=1;resizeParentMax=0;resizeLast=0;collapsible=1;marginBottom=0;strokeColor=#DDA15E;fontColor=#FEFAE0;" parent="1" vertex="1"><mxGeometry x="220" y="1830" width="210" height="70" as="geometry"><mxRectangle x="200" y="240" width="70" height="26" as="alternateBounds"/></mxGeometry></mxCell><mxCell id="eZccYVu5luKvhpqjTT1i-33" value="+execute(processData) : void" style="text;strokeColor=none;fillColor=none;align=left;verticalAlign=top;spacingLeft=4;spacingRight=4;overflow=hidden;rotatable=0;points=[[0,0.5],[1,0.5]];portConstraint=eastwest;fontColor=#FEFAE0;" parent="eZccYVu5luKvhpqjTT1i-32" vertex="1"><mxGeometry y="26" width="210" height="44" as="geometry"/></mxCell><mxCell id="eZccYVu5luKvhpqjTT1i-37" style="edgeStyle=orthogonalEdgeStyle;rounded=0;orthogonalLoop=1;jettySize=auto;html=1;endArrow=none;endFill=0;strokeColor=#DDA15E;dashed=1;labelBackgroundColor=#283618;fontColor=#FEFAE0;" parent="1" source="eZccYVu5luKvhpqjTT1i-29" edge="1"><mxGeometry relative="1" as="geometry"><mxPoint x="480" y="1678" as="targetPoint"/></mxGeometry></mxCell><mxCell id="eZccYVu5luKvhpqjTT1i-41" style="edgeStyle=orthogonalEdgeStyle;rounded=0;orthogonalLoop=1;jettySize=auto;html=1;entryX=0;entryY=0;entryDx=70;entryDy=32;entryPerimeter=0;startArrow=none;startFill=0;endArrow=none;endFill=0;strokeColor=#DDA15E;fillColor=#BC6C25;labelBackgroundColor=#283618;fontColor=#FEFAE0;" parent="1" source="eZccYVu5luKvhpqjTT1i-25" target="eZccYVu5luKvhpqjTT1i-21" edge="1"><mxGeometry relative="1" as="geometry"><Array as="points"><mxPoint x="190" y="1492"/><mxPoint x="190" y="1492"/></Array></mxGeometry></mxCell><mxCell id="eZccYVu5luKvhpqjTT1i-42" style="edgeStyle=orthogonalEdgeStyle;rounded=0;orthogonalLoop=1;jettySize=auto;html=1;startArrow=none;startFill=0;endArrow=none;endFill=0;strokeColor=#DDA15E;fillColor=#BC6C25;labelBackgroundColor=#283618;fontColor=#FEFAE0;" parent="1" source="eZccYVu5luKvhpqjTT1i-27" edge="1"><mxGeometry relative="1" as="geometry"><mxPoint x="160" y="1490" as="targetPoint"/><Array as="points"><mxPoint x="160" y="1588"/><mxPoint x="160" y="1500"/></Array></mxGeometry></mxCell><mxCell id="eZccYVu5luKvhpqjTT1i-43" style="edgeStyle=orthogonalEdgeStyle;rounded=0;orthogonalLoop=1;jettySize=auto;html=1;startArrow=none;startFill=0;endArrow=none;endFill=0;strokeColor=#DDA15E;fillColor=#BC6C25;labelBackgroundColor=#283618;fontColor=#FEFAE0;" parent="1" source="eZccYVu5luKvhpqjTT1i-29" edge="1"><mxGeometry relative="1" as="geometry"><mxPoint x="160" y="1580" as="targetPoint"/></mxGeometry></mxCell><mxCell id="eZccYVu5luKvhpqjTT1i-44" style="edgeStyle=orthogonalEdgeStyle;rounded=0;orthogonalLoop=1;jettySize=auto;html=1;startArrow=none;startFill=0;endArrow=none;endFill=0;strokeColor=#DDA15E;fillColor=#BC6C25;labelBackgroundColor=#283618;fontColor=#FEFAE0;" parent="1" source="eZccYVu5luKvhpqjTT1i-31" edge="1"><mxGeometry relative="1" as="geometry"><mxPoint x="160" y="1670" as="targetPoint"/></mxGeometry></mxCell><mxCell id="eZccYVu5luKvhpqjTT1i-45" style="edgeStyle=orthogonalEdgeStyle;rounded=0;orthogonalLoop=1;jettySize=auto;html=1;startArrow=none;startFill=0;endArrow=none;endFill=0;strokeColor=#DDA15E;fillColor=#BC6C25;labelBackgroundColor=#283618;fontColor=#FEFAE0;" parent="1" source="eZccYVu5luKvhpqjTT1i-33" edge="1"><mxGeometry relative="1" as="geometry"><mxPoint x="160" y="1780" as="targetPoint"/></mxGeometry></mxCell><mxCell id="eZccYVu5luKvhpqjTT1i-48" style="edgeStyle=orthogonalEdgeStyle;rounded=0;orthogonalLoop=1;jettySize=auto;html=1;startArrow=diamond;startFill=0;endArrow=none;endFill=0;strokeColor=#DDA15E;labelBackgroundColor=#283618;fontColor=#FEFAE0;" parent="1" source="rWK2ofTDJnI1rJvoRiko-10" edge="1"><mxGeometry relative="1" as="geometry"><mxPoint x="1590" y="198" as="targetPoint"/></mxGeometry></mxCell><mxCell id="eZccYVu5luKvhpqjTT1i-58" style="edgeStyle=orthogonalEdgeStyle;rounded=0;orthogonalLoop=1;jettySize=auto;html=1;startArrow=none;startFill=0;endArrow=diamond;endFill=1;strokeColor=#DDA15E;entryX=0.176;entryY=1.027;entryDx=0;entryDy=0;entryPerimeter=0;labelBackgroundColor=#283618;fontColor=#FEFAE0;" parent="1" source="eZccYVu5luKvhpqjTT1i-56" target="rWK2ofTDJnI1rJvoRiko-48" edge="1"><mxGeometry relative="1" as="geometry"><mxPoint x="230" y="320" as="targetPoint"/><Array as="points"><mxPoint x="615" y="1230"/><mxPoint x="490" y="1230"/><mxPoint x="490" y="480"/><mxPoint x="228" y="480"/></Array></mxGeometry></mxCell><mxCell id="eZccYVu5luKvhpqjTT1i-56" value="ProcessData" style="swimlane;fontStyle=0;childLayout=stackLayout;horizontal=1;startSize=26;fillColor=none;horizontalStack=0;resizeParent=1;resizeParentMax=0;resizeLast=0;collapsible=1;marginBottom=0;strokeColor=#DDA15E;fontColor=#FEFAE0;" parent="1" vertex="1"><mxGeometry x="510" y="1250" width="210" height="70" as="geometry"><mxRectangle x="200" y="240" width="70" height="26" as="alternateBounds"/></mxGeometry></mxCell><mxCell id="eZccYVu5luKvhpqjTT1i-57" value="+getMessage() : Message&#10;+getClientHandler() : ClientHandler&#10;" style="text;strokeColor=none;fillColor=none;align=left;verticalAlign=top;spacingLeft=4;spacingRight=4;overflow=hidden;rotatable=0;points=[[0,0.5],[1,0.5]];portConstraint=eastwest;fontColor=#FEFAE0;" parent="eZccYVu5luKvhpqjTT1i-56" vertex="1"><mxGeometry y="26" width="210" height="44" as="geometry"/></mxCell><mxCell id="eZccYVu5luKvhpqjTT1i-59" style="edgeStyle=orthogonalEdgeStyle;rounded=0;orthogonalLoop=1;jettySize=auto;html=1;entryX=0.5;entryY=1;entryDx=0;entryDy=0;startArrow=none;startFill=0;endArrow=diamond;endFill=1;strokeColor=#DDA15E;labelBackgroundColor=#283618;fontColor=#FEFAE0;" parent="1" source="eZccYVu5luKvhpqjTT1i-57" target="rWK2ofTDJnI1rJvoRiko-63" edge="1"><mxGeometry relative="1" as="geometry"/></mxCell><mxCell id="eZccYVu5luKvhpqjTT1i-60" style="edgeStyle=orthogonalEdgeStyle;rounded=0;orthogonalLoop=1;jettySize=auto;html=1;entryX=1.009;entryY=0.923;entryDx=0;entryDy=0;entryPerimeter=0;startArrow=none;startFill=0;endArrow=open;endFill=0;strokeColor=#DDA15E;labelBackgroundColor=#283618;fontColor=#FEFAE0;" parent="1" source="eZccYVu5luKvhpqjTT1i-57" target="eZccYVu5luKvhpqjTT1i-17" edge="1"><mxGeometry relative="1" as="geometry"/></mxCell><mxCell id="eZccYVu5luKvhpqjTT1i-62" value="Paths" style="html=1;fillColor=#BC6C25;strokeColor=#DDA15E;fontColor=#FEFAE0;" parent="1" vertex="1"><mxGeometry x="160" y="860" width="110" height="30" as="geometry"/></mxCell><mxCell id="eZccYVu5luKvhpqjTT1i-68" style="edgeStyle=orthogonalEdgeStyle;rounded=0;orthogonalLoop=1;jettySize=auto;html=1;startArrow=none;startFill=0;endArrow=none;endFill=0;strokeColor=#DDA15E;labelBackgroundColor=#283618;fontColor=#FEFAE0;" parent="1" source="eZccYVu5luKvhpqjTT1i-66" target="rWK2ofTDJnI1rJvoRiko-1" edge="1"><mxGeometry relative="1" as="geometry"><mxPoint x="-120" y="2145" as="targetPoint"/></mxGeometry></mxCell><mxCell id="eZccYVu5luKvhpqjTT1i-66" value="clientMap" style="shape=folder;fontStyle=1;spacingTop=10;tabWidth=40;tabHeight=14;tabPosition=left;html=1;fillColor=#BC6C25;strokeColor=#DDA15E;fontColor=#FEFAE0;" parent="1" vertex="1"><mxGeometry x="40" y="2120" width="70" height="50" as="geometry"/></mxCell><mxCell id="eZccYVu5luKvhpqjTT1i-71" value="ClientList" style="swimlane;fontStyle=1;align=center;verticalAlign=top;childLayout=stackLayout;horizontal=1;startSize=26;horizontalStack=0;resizeParent=1;resizeParentMax=0;resizeLast=0;collapsible=1;marginBottom=0;fillColor=#BC6C25;strokeColor=#DDA15E;fontColor=#FEFAE0;" parent="1" vertex="1"><mxGeometry x="1040" y="2110" width="280" height="142" as="geometry"/></mxCell><mxCell id="eZccYVu5luKvhpqjTT1i-72" value="- clientList : CopyOnWriteArrayList&lt;ClientHandler&gt;&#10;- thisClientInstance : ClientList&#10;" style="text;strokeColor=none;fillColor=none;align=left;verticalAlign=top;spacingLeft=4;spacingRight=4;overflow=hidden;rotatable=0;points=[[0,0.5],[1,0.5]];portConstraint=eastwest;fontColor=#FEFAE0;" parent="eZccYVu5luKvhpqjTT1i-71" vertex="1"><mxGeometry y="26" width="280" height="34" as="geometry"/></mxCell><mxCell id="eZccYVu5luKvhpqjTT1i-73" value="" style="line;strokeWidth=1;fillColor=none;align=left;verticalAlign=middle;spacingTop=-1;spacingLeft=3;spacingRight=3;rotatable=0;labelPosition=right;points=[];portConstraint=eastwest;labelBackgroundColor=#283618;strokeColor=#DDA15E;fontColor=#FEFAE0;" parent="eZccYVu5luKvhpqjTT1i-71" vertex="1"><mxGeometry y="60" width="280" height="10" as="geometry"/></mxCell><mxCell id="eZccYVu5luKvhpqjTT1i-74" value="+ getInstance() : ClientList&#10;+add(clientHandler) : void&#10;+remove(ClientHandler):void&#10;+getIterator() : Iterator&lt;ClientHandler&gt;&#10;" style="text;strokeColor=none;fillColor=none;align=left;verticalAlign=top;spacingLeft=4;spacingRight=4;overflow=hidden;rotatable=0;points=[[0,0.5],[1,0.5]];portConstraint=eastwest;fontColor=#FEFAE0;" parent="eZccYVu5luKvhpqjTT1i-71" vertex="1"><mxGeometry y="70" width="280" height="72" as="geometry"/></mxCell><mxCell id="eZccYVu5luKvhpqjTT1i-75" style="edgeStyle=orthogonalEdgeStyle;rounded=0;orthogonalLoop=1;jettySize=auto;html=1;startArrow=none;startFill=0;endArrow=none;endFill=0;strokeColor=#DDA15E;fillColor=#BC6C25;labelBackgroundColor=#283618;fontColor=#FEFAE0;" parent="1" source="eZccYVu5luKvhpqjTT1i-72" target="eZccYVu5luKvhpqjTT1i-66" edge="1"><mxGeometry relative="1" as="geometry"/></mxCell><mxCell id="eZccYVu5luKvhpqjTT1i-108" style="edgeStyle=orthogonalEdgeStyle;rounded=0;orthogonalLoop=1;jettySize=auto;html=1;startArrow=none;startFill=0;endArrow=none;endFill=0;strokeColor=#DDA15E;labelBackgroundColor=#283618;fontColor=#FEFAE0;" parent="1" source="eZccYVu5luKvhpqjTT1i-76" target="rWK2ofTDJnI1rJvoRiko-1" edge="1"><mxGeometry relative="1" as="geometry"><mxPoint x="-130" y="2360" as="targetPoint"/></mxGeometry></mxCell><mxCell id="eZccYVu5luKvhpqjTT1i-76" value="file" style="shape=folder;fontStyle=1;spacingTop=10;tabWidth=40;tabHeight=14;tabPosition=left;html=1;fillColor=#BC6C25;strokeColor=#DDA15E;fontColor=#FEFAE0;" parent="1" vertex="1"><mxGeometry x="40" y="2390" width="70" height="50" as="geometry"/></mxCell><mxCell id="eZccYVu5luKvhpqjTT1i-81" style="edgeStyle=orthogonalEdgeStyle;rounded=0;orthogonalLoop=1;jettySize=auto;html=1;entryX=0;entryY=0;entryDx=70;entryDy=32;entryPerimeter=0;startArrow=none;startFill=0;endArrow=none;endFill=0;strokeColor=#DDA15E;labelBackgroundColor=#283618;fontColor=#FEFAE0;" parent="1" source="eZccYVu5luKvhpqjTT1i-78" target="eZccYVu5luKvhpqjTT1i-76" edge="1"><mxGeometry relative="1" as="geometry"/></mxCell><mxCell id="eZccYVu5luKvhpqjTT1i-82" style="edgeStyle=orthogonalEdgeStyle;rounded=0;orthogonalLoop=1;jettySize=auto;html=1;entryX=1;entryY=0.5;entryDx=0;entryDy=0;startArrow=openThin;startFill=0;endArrow=none;endFill=0;strokeColor=#DDA15E;labelBackgroundColor=#283618;fontColor=#FEFAE0;" parent="1" source="eZccYVu5luKvhpqjTT1i-78" target="eZccYVu5luKvhpqjTT1i-28" edge="1"><mxGeometry relative="1" as="geometry"><Array as="points"><mxPoint x="722" y="1665"/></Array></mxGeometry></mxCell><mxCell id="eZccYVu5luKvhpqjTT1i-78" value="ReaderFile" style="swimlane;fontStyle=0;childLayout=stackLayout;horizontal=1;startSize=26;fillColor=none;horizontalStack=0;resizeParent=1;resizeParentMax=0;resizeLast=0;collapsible=1;marginBottom=0;strokeColor=#DDA15E;fontColor=#FEFAE0;" parent="1" vertex="1"><mxGeometry x="617" y="2380" width="210" height="70" as="geometry"><mxRectangle x="200" y="240" width="70" height="26" as="alternateBounds"/></mxGeometry></mxCell><mxCell id="eZccYVu5luKvhpqjTT1i-79" value="+read() : String" style="text;strokeColor=none;fillColor=none;align=left;verticalAlign=top;spacingLeft=4;spacingRight=4;overflow=hidden;rotatable=0;points=[[0,0.5],[1,0.5]];portConstraint=eastwest;fontColor=#FEFAE0;" parent="eZccYVu5luKvhpqjTT1i-78" vertex="1"><mxGeometry y="26" width="210" height="44" as="geometry"/></mxCell><mxCell id="eZccYVu5luKvhpqjTT1i-86" style="edgeStyle=orthogonalEdgeStyle;rounded=0;orthogonalLoop=1;jettySize=auto;html=1;entryX=0.5;entryY=1;entryDx=0;entryDy=0;startArrow=none;startFill=0;endArrow=none;endFill=0;strokeColor=#DDA15E;fillColor=#BC6C25;labelBackgroundColor=#283618;fontColor=#FEFAE0;" parent="1" source="eZccYVu5luKvhpqjTT1i-85" target="eZccYVu5luKvhpqjTT1i-23" edge="1"><mxGeometry relative="1" as="geometry"><Array as="points"><mxPoint x="75" y="1950"/><mxPoint x="1075" y="1950"/></Array></mxGeometry></mxCell><mxCell id="eZccYVu5luKvhpqjTT1i-87" style="edgeStyle=orthogonalEdgeStyle;rounded=0;orthogonalLoop=1;jettySize=auto;html=1;startArrow=none;startFill=0;endArrow=none;endFill=0;strokeColor=#DDA15E;entryX=0.5;entryY=1;entryDx=0;entryDy=0;entryPerimeter=0;labelBackgroundColor=#283618;fontColor=#FEFAE0;" parent="1" source="eZccYVu5luKvhpqjTT1i-85" target="rWK2ofTDJnI1rJvoRiko-1" edge="1"><mxGeometry relative="1" as="geometry"><mxPoint x="-120" y="1850.0000000000005" as="targetPoint"/></mxGeometry></mxCell><mxCell id="eZccYVu5luKvhpqjTT1i-85" value="inerfeces" style="shape=folder;fontStyle=1;spacingTop=10;tabWidth=40;tabHeight=14;tabPosition=left;html=1;fillColor=#BC6C25;strokeColor=#DDA15E;fontColor=#FEFAE0;" parent="1" vertex="1"><mxGeometry x="40" y="1830" width="70" height="40" as="geometry"/></mxCell><mxCell id="eZccYVu5luKvhpqjTT1i-93" style="edgeStyle=orthogonalEdgeStyle;rounded=0;orthogonalLoop=1;jettySize=auto;html=1;entryX=0;entryY=0.5;entryDx=0;entryDy=0;startArrow=none;startFill=0;endArrow=none;endFill=0;strokeColor=#DDA15E;labelBackgroundColor=#283618;fontColor=#FEFAE0;" parent="1" source="eZccYVu5luKvhpqjTT1i-90" target="eZccYVu5luKvhpqjTT1i-91" edge="1"><mxGeometry relative="1" as="geometry"/></mxCell><mxCell id="eZccYVu5luKvhpqjTT1i-90" value="json_parser" style="shape=folder;fontStyle=1;spacingTop=10;tabWidth=40;tabHeight=14;tabPosition=left;html=1;fillColor=#BC6C25;strokeColor=#DDA15E;fontColor=#FEFAE0;" parent="1" vertex="1"><mxGeometry x="35" y="2650" width="80" height="50" as="geometry"/></mxCell><mxCell id="eZccYVu5luKvhpqjTT1i-94" style="edgeStyle=orthogonalEdgeStyle;rounded=0;orthogonalLoop=1;jettySize=auto;html=1;startArrow=none;startFill=0;endArrow=none;endFill=0;strokeColor=#DDA15E;labelBackgroundColor=#283618;fontColor=#FEFAE0;" parent="1" source="eZccYVu5luKvhpqjTT1i-91" edge="1"><mxGeometry relative="1" as="geometry"><mxPoint x="139.99999999999955" y="1740" as="targetPoint"/><Array as="points"><mxPoint x="1146" y="2300"/><mxPoint x="140" y="2300"/></Array></mxGeometry></mxCell><mxCell id="eZccYVu5luKvhpqjTT1i-95" style="edgeStyle=orthogonalEdgeStyle;rounded=0;orthogonalLoop=1;jettySize=auto;html=1;entryX=0.687;entryY=0.995;entryDx=0;entryDy=0;entryPerimeter=0;startArrow=diamond;startFill=0;endArrow=none;endFill=0;strokeColor=#DDA15E;labelBackgroundColor=#283618;fontColor=#FEFAE0;" parent="1" source="eZccYVu5luKvhpqjTT1i-91" target="rWK2ofTDJnI1rJvoRiko-15" edge="1"><mxGeometry relative="1" as="geometry"><Array as="points"><mxPoint x="1620" y="2685"/></Array></mxGeometry></mxCell><mxCell id="eZccYVu5luKvhpqjTT1i-110" style="edgeStyle=orthogonalEdgeStyle;rounded=0;orthogonalLoop=1;jettySize=auto;html=1;startArrow=none;startFill=0;endArrow=classic;endFill=1;strokeColor=#DDA15E;labelBackgroundColor=#283618;fontColor=#FEFAE0;" parent="1" source="eZccYVu5luKvhpqjTT1i-91" target="rWK2ofTDJnI1rJvoRiko-29" edge="1"><mxGeometry relative="1" as="geometry"><mxPoint x="330" y="230" as="targetPoint"/><Array as="points"><mxPoint x="1340" y="2650"/><mxPoint x="1340" y="220"/><mxPoint x="280" y="220"/></Array></mxGeometry></mxCell><mxCell id="eZccYVu5luKvhpqjTT1i-91" value="JSON" style="swimlane;fontStyle=0;childLayout=stackLayout;horizontal=1;startSize=26;fillColor=none;horizontalStack=0;resizeParent=1;resizeParentMax=0;resizeLast=0;collapsible=1;marginBottom=0;strokeColor=#DDA15E;fontColor=#FEFAE0;" parent="1" vertex="1"><mxGeometry x="1065" y="2640" width="230" height="90" as="geometry"><mxRectangle x="200" y="240" width="70" height="26" as="alternateBounds"/></mxGeometry></mxCell><mxCell id="eZccYVu5luKvhpqjTT1i-92" value="+ toJsonMessage(Message) : String&#10;+ fromJsonMessage(String) : Message&#10;+ addMessageFile(Message) : void&#10;+ readMessageSource() : List&lt;Message&gt;&#10;" style="text;strokeColor=none;fillColor=none;align=left;verticalAlign=top;spacingLeft=4;spacingRight=4;overflow=hidden;rotatable=0;points=[[0,0.5],[1,0.5]];portConstraint=eastwest;fontColor=#FEFAE0;" parent="eZccYVu5luKvhpqjTT1i-91" vertex="1"><mxGeometry y="26" width="230" height="64" as="geometry"/></mxCell><mxCell id="eZccYVu5luKvhpqjTT1i-102" style="edgeStyle=orthogonalEdgeStyle;rounded=0;orthogonalLoop=1;jettySize=auto;html=1;entryX=0.652;entryY=1;entryDx=0;entryDy=0;entryPerimeter=0;startArrow=none;startFill=0;endArrow=none;endFill=0;strokeColor=#DDA15E;labelBackgroundColor=#283618;fontColor=#FEFAE0;" parent="1" source="rWK2ofTDJnI1rJvoRiko-64" target="rWK2ofTDJnI1rJvoRiko-47" edge="1"><mxGeometry relative="1" as="geometry"/></mxCell><mxCell id="eZccYVu5luKvhpqjTT1i-106" style="edgeStyle=orthogonalEdgeStyle;rounded=0;orthogonalLoop=1;jettySize=auto;html=1;startArrow=none;startFill=0;endArrow=classic;endFill=1;strokeColor=#DDA15E;labelBackgroundColor=#283618;fontColor=#FEFAE0;" parent="1" source="rWK2ofTDJnI1rJvoRiko-64" edge="1"><mxGeometry relative="1" as="geometry"><mxPoint x="159.99999999999955" y="1610" as="targetPoint"/><Array as="points"><mxPoint x="780" y="1120"/><mxPoint x="130" y="1120"/><mxPoint x="130" y="1610"/></Array></mxGeometry></mxCell></root></mxGraphModel></diagram><diagram id="JR7RUXjq00df_NH_4HVf" name="Page-2"><mxGraphModel dx="2574" dy="916" grid="1" gridSize="10" guides="1" tooltips="1" connect="1" arrows="1" fold="1" page="1" pageScale="1" pageWidth="827" pageHeight="1169" math="0" shadow="0"><root><mxCell id="TCsP9TbFolHiqnpfsmcs-0"/><mxCell id="TCsP9TbFolHiqnpfsmcs-1" parent="TCsP9TbFolHiqnpfsmcs-0"/><mxCell id="J7jRR8AP0cpAzAHG7W-n-2" style="edgeStyle=orthogonalEdgeStyle;curved=0;rounded=1;sketch=0;orthogonalLoop=1;jettySize=auto;html=1;entryX=0;entryY=0.5;entryDx=0;entryDy=0;fontColor=#FEFAE0;strokeColor=#DDA15E;fillColor=#BC6C25;" edge="1" parent="TCsP9TbFolHiqnpfsmcs-1" source="J7jRR8AP0cpAzAHG7W-n-0" target="J7jRR8AP0cpAzAHG7W-n-1"><mxGeometry relative="1" as="geometry"/></mxCell><mxCell id="J7jRR8AP0cpAzAHG7W-n-0" value="Start" style="html=1;rounded=0;sketch=0;fontColor=#FEFAE0;strokeColor=#DDA15E;fillColor=#BC6C25;" vertex="1" parent="TCsP9TbFolHiqnpfsmcs-1"><mxGeometry x="-370" y="220" width="110" height="50" as="geometry"/></mxCell><mxCell id="J7jRR8AP0cpAzAHG7W-n-1" value="Server" style="html=1;rounded=0;sketch=0;fontColor=#FEFAE0;strokeColor=#DDA15E;fillColor=#BC6C25;" vertex="1" parent="TCsP9TbFolHiqnpfsmcs-1"><mxGeometry x="-190" y="220" width="110" height="50" as="geometry"/></mxCell><mxCell id="J7jRR8AP0cpAzAHG7W-n-21" style="edgeStyle=orthogonalEdgeStyle;curved=0;rounded=1;sketch=0;orthogonalLoop=1;jettySize=auto;html=1;entryX=-0.007;entryY=0.285;entryDx=0;entryDy=0;entryPerimeter=0;fontSize=19;fontColor=#FEFAE0;startArrow=none;startFill=0;endArrow=classic;endFill=1;strokeColor=#DDA15E;fillColor=#BC6C25;" edge="1" parent="TCsP9TbFolHiqnpfsmcs-1" source="J7jRR8AP0cpAzAHG7W-n-3" target="J7jRR8AP0cpAzAHG7W-n-16"><mxGeometry relative="1" as="geometry"><Array as="points"><mxPoint x="960" y="230"/><mxPoint x="960" y="202"/></Array></mxGeometry></mxCell><mxCell id="J7jRR8AP0cpAzAHG7W-n-3" value="ClientHandler" style="html=1;rounded=0;sketch=0;fontColor=#FEFAE0;strokeColor=#DDA15E;fillColor=#BC6C25;" vertex="1" parent="TCsP9TbFolHiqnpfsmcs-1"><mxGeometry x="600" y="220" width="110" height="50" as="geometry"/></mxCell><mxCell id="J7jRR8AP0cpAzAHG7W-n-6" value="" style="endArrow=none;html=1;endSize=12;startArrow=block;startSize=14;startFill=1;edgeStyle=orthogonalEdgeStyle;fontColor=#FEFAE0;strokeColor=#DDA15E;fillColor=#BC6C25;exitX=0;exitY=0.5;exitDx=0;exitDy=0;entryX=1;entryY=0.5;entryDx=0;entryDy=0;endFill=0;" edge="1" parent="TCsP9TbFolHiqnpfsmcs-1" source="J7jRR8AP0cpAzAHG7W-n-3" target="J7jRR8AP0cpAzAHG7W-n-1"><mxGeometry relative="1" as="geometry"><mxPoint x="650" y="230" as="sourcePoint"/><mxPoint x="490" y="230" as="targetPoint"/></mxGeometry></mxCell><mxCell id="J7jRR8AP0cpAzAHG7W-n-7" value="0..n" style="edgeLabel;resizable=0;html=1;align=left;verticalAlign=top;" connectable="0" vertex="1" parent="J7jRR8AP0cpAzAHG7W-n-6"><mxGeometry x="-1" relative="1" as="geometry"/></mxCell><mxCell id="J7jRR8AP0cpAzAHG7W-n-8" value="1" style="edgeLabel;resizable=0;html=1;align=right;verticalAlign=top;" connectable="0" vertex="1" parent="J7jRR8AP0cpAzAHG7W-n-6"><mxGeometry x="1" relative="1" as="geometry"/></mxCell><mxCell id="J7jRR8AP0cpAzAHG7W-n-10" value="ClientHandlerAbstract" style="html=1;rounded=0;sketch=0;fontColor=#FEFAE0;strokeColor=#DDA15E;fillColor=#BC6C25;" vertex="1" parent="TCsP9TbFolHiqnpfsmcs-1"><mxGeometry x="590" y="60" width="130" height="50" as="geometry"/></mxCell><mxCell id="J7jRR8AP0cpAzAHG7W-n-11" value="" style="endArrow=classic;html=1;edgeStyle=orthogonalEdgeStyle;fontColor=#FEFAE0;strokeColor=#DDA15E;fillColor=#BC6C25;exitX=0.454;exitY=1.06;exitDx=0;exitDy=0;exitPerimeter=0;entryX=0.445;entryY=0;entryDx=0;entryDy=0;entryPerimeter=0;endFill=1;" edge="1" parent="TCsP9TbFolHiqnpfsmcs-1" source="J7jRR8AP0cpAzAHG7W-n-10" target="J7jRR8AP0cpAzAHG7W-n-3"><mxGeometry relative="1" as="geometry"><mxPoint x="670" y="230" as="sourcePoint"/><mxPoint x="830" y="230" as="targetPoint"/></mxGeometry></mxCell><mxCell id="J7jRR8AP0cpAzAHG7W-n-12" value="parent" style="edgeLabel;resizable=0;html=1;align=left;verticalAlign=bottom;" connectable="0" vertex="1" parent="J7jRR8AP0cpAzAHG7W-n-11"><mxGeometry x="-1" relative="1" as="geometry"/></mxCell><mxCell id="J7jRR8AP0cpAzAHG7W-n-13" value="child" style="edgeLabel;resizable=0;html=1;align=right;verticalAlign=bottom;" connectable="0" vertex="1" parent="J7jRR8AP0cpAzAHG7W-n-11"><mxGeometry x="1" relative="1" as="geometry"/></mxCell><mxCell id="J7jRR8AP0cpAzAHG7W-n-17" style="edgeStyle=orthogonalEdgeStyle;curved=0;rounded=1;sketch=0;orthogonalLoop=1;jettySize=auto;html=1;entryX=0.5;entryY=1;entryDx=0;entryDy=0;fontSize=19;fontColor=#FEFAE0;startArrow=block;startFill=1;endArrow=none;endFill=0;strokeColor=#DDA15E;fillColor=#BC6C25;" edge="1" parent="TCsP9TbFolHiqnpfsmcs-1" source="J7jRR8AP0cpAzAHG7W-n-16" target="J7jRR8AP0cpAzAHG7W-n-1"><mxGeometry relative="1" as="geometry"/></mxCell><mxCell id="J7jRR8AP0cpAzAHG7W-n-16" value="CLIENT" style="shape=umlFrame;whiteSpace=wrap;html=1;rounded=0;sketch=0;fontSize=19;fontColor=#ffffff;strokeColor=#2D7600;fillColor=#60a917;width=90;height=30;" vertex="1" parent="TCsP9TbFolHiqnpfsmcs-1"><mxGeometry x="1730" y="145" width="300" height="200" as="geometry"/></mxCell><mxCell id="J7jRR8AP0cpAzAHG7W-n-19" value="connections" style="text;strokeColor=none;fillColor=none;align=left;verticalAlign=top;spacingLeft=4;spacingRight=4;overflow=hidden;rotatable=0;points=[[0,0.5],[1,0.5]];portConstraint=eastwest;rounded=0;sketch=0;fontSize=19;fontColor=#FEFAE0;" vertex="1" parent="TCsP9TbFolHiqnpfsmcs-1"><mxGeometry x="430" y="330" width="120" height="26" as="geometry"/></mxCell><mxCell id="J7jRR8AP0cpAzAHG7W-n-20" value="make thread" style="text;strokeColor=none;fillColor=none;align=left;verticalAlign=top;spacingLeft=4;spacingRight=4;overflow=hidden;rotatable=0;points=[[0,0.5],[1,0.5]];portConstraint=eastwest;rounded=0;sketch=0;fontSize=19;fontColor=#FEFAE0;" vertex="1" parent="TCsP9TbFolHiqnpfsmcs-1"><mxGeometry x="-30" y="210" width="120" height="26" as="geometry"/></mxCell><mxCell id="J7jRR8AP0cpAzAHG7W-n-23" value="request" style="text;strokeColor=none;fillColor=none;align=left;verticalAlign=top;spacingLeft=4;spacingRight=4;overflow=hidden;rotatable=0;points=[[0,0.5],[1,0.5]];portConstraint=eastwest;rounded=0;sketch=0;fontSize=19;fontColor=#FEFAE0;" vertex="1" parent="TCsP9TbFolHiqnpfsmcs-1"><mxGeometry x="1140" y="290" width="90" height="26" as="geometry"/></mxCell><mxCell id="J7jRR8AP0cpAzAHG7W-n-24" value="response" style="text;strokeColor=none;fillColor=none;align=left;verticalAlign=top;spacingLeft=4;spacingRight=4;overflow=hidden;rotatable=0;points=[[0,0.5],[1,0.5]];portConstraint=eastwest;rounded=0;sketch=0;fontSize=19;fontColor=#FEFAE0;" vertex="1" parent="TCsP9TbFolHiqnpfsmcs-1"><mxGeometry x="1130" y="170" width="90" height="26" as="geometry"/></mxCell><mxCell id="J7jRR8AP0cpAzAHG7W-n-26" style="edgeStyle=orthogonalEdgeStyle;curved=0;rounded=1;sketch=0;orthogonalLoop=1;jettySize=auto;html=1;entryX=0.5;entryY=1;entryDx=0;entryDy=0;fontSize=19;fontColor=#FEFAE0;startArrow=classic;startFill=1;endArrow=none;endFill=0;strokeColor=#DDA15E;fillColor=#BC6C25;" edge="1" parent="TCsP9TbFolHiqnpfsmcs-1" source="J7jRR8AP0cpAzAHG7W-n-38" target="J7jRR8AP0cpAzAHG7W-n-3"><mxGeometry relative="1" as="geometry"/></mxCell><mxCell id="J7jRR8AP0cpAzAHG7W-n-25" value="CommandObserver" style="html=1;rounded=0;sketch=0;fontColor=#FEFAE0;strokeColor=#DDA15E;fillColor=#BC6C25;" vertex="1" parent="TCsP9TbFolHiqnpfsmcs-1"><mxGeometry x="585" y="590" width="140" height="50" as="geometry"/></mxCell><mxCell id="J7jRR8AP0cpAzAHG7W-n-35" style="edgeStyle=orthogonalEdgeStyle;curved=0;rounded=1;sketch=0;orthogonalLoop=1;jettySize=auto;html=1;fontSize=19;fontColor=#FEFAE0;startArrow=classic;startFill=1;endArrow=none;endFill=0;strokeColor=#DDA15E;fillColor=#BC6C25;" edge="1" parent="TCsP9TbFolHiqnpfsmcs-1" source="J7jRR8AP0cpAzAHG7W-n-27" target="J7jRR8AP0cpAzAHG7W-n-25"><mxGeometry relative="1" as="geometry"><Array as="points"><mxPoint x="650" y="790"/><mxPoint x="650" y="790"/></Array></mxGeometry></mxCell><mxCell id="J7jRR8AP0cpAzAHG7W-n-37" style="edgeStyle=orthogonalEdgeStyle;curved=0;rounded=1;sketch=0;orthogonalLoop=1;jettySize=auto;html=1;exitX=1;exitY=0.5;exitDx=0;exitDy=0;fontSize=19;fontColor=#FEFAE0;startArrow=classic;startFill=1;endArrow=none;endFill=0;strokeColor=#DDA15E;fillColor=#BC6C25;" edge="1" parent="TCsP9TbFolHiqnpfsmcs-1" source="J7jRR8AP0cpAzAHG7W-n-27"><mxGeometry relative="1" as="geometry"><mxPoint x="719.4285714285716" y="965.4285714285716" as="targetPoint"/></mxGeometry></mxCell><mxCell id="HJ40Izc7643Xr3awIv0s-15" style="edgeStyle=orthogonalEdgeStyle;curved=0;rounded=1;sketch=0;orthogonalLoop=1;jettySize=auto;html=1;fontSize=19;fontColor=#FEFAE0;startArrow=none;startFill=0;endArrow=classic;endFill=1;strokeColor=#DDA15E;fillColor=#BC6C25;" edge="1" parent="TCsP9TbFolHiqnpfsmcs-1" source="J7jRR8AP0cpAzAHG7W-n-27"><mxGeometry relative="1" as="geometry"><mxPoint x="1130" y="200" as="targetPoint"/><Array as="points"><mxPoint x="650" y="1110"/><mxPoint x="1130" y="1110"/></Array></mxGeometry></mxCell><mxCell id="J7jRR8AP0cpAzAHG7W-n-27" value="History" style="html=1;rounded=0;sketch=0;fontColor=#FEFAE0;strokeColor=#DDA15E;fillColor=#BC6C25;" vertex="1" parent="TCsP9TbFolHiqnpfsmcs-1"><mxGeometry x="580" y="940" width="140" height="50" as="geometry"/></mxCell><mxCell id="J7jRR8AP0cpAzAHG7W-n-34" style="edgeStyle=orthogonalEdgeStyle;curved=0;rounded=1;sketch=0;orthogonalLoop=1;jettySize=auto;html=1;fontSize=19;fontColor=#FEFAE0;startArrow=classic;startFill=1;endArrow=none;endFill=0;strokeColor=#DDA15E;fillColor=#BC6C25;" edge="1" parent="TCsP9TbFolHiqnpfsmcs-1" source="J7jRR8AP0cpAzAHG7W-n-28"><mxGeometry relative="1" as="geometry"><mxPoint x="650" y="640.0000000000002" as="targetPoint"/><Array as="points"><mxPoint x="490" y="780"/><mxPoint x="650" y="780"/></Array></mxGeometry></mxCell><mxCell id="HJ40Izc7643Xr3awIv0s-12" style="edgeStyle=orthogonalEdgeStyle;curved=0;rounded=1;sketch=0;orthogonalLoop=1;jettySize=auto;html=1;entryX=0.5;entryY=1;entryDx=0;entryDy=0;fontSize=19;fontColor=#FEFAE0;startArrow=none;startFill=0;endArrow=classic;endFill=1;strokeColor=#DDA15E;fillColor=#BC6C25;" edge="1" parent="TCsP9TbFolHiqnpfsmcs-1" source="J7jRR8AP0cpAzAHG7W-n-28" target="J7jRR8AP0cpAzAHG7W-n-40"><mxGeometry relative="1" as="geometry"><Array as="points"><mxPoint x="485" y="1070"/><mxPoint x="215" y="1070"/></Array></mxGeometry></mxCell><mxCell id="J7jRR8AP0cpAzAHG7W-n-28" value="Exit" style="html=1;rounded=0;sketch=0;fontColor=#FEFAE0;strokeColor=#DDA15E;fillColor=#BC6C25;" vertex="1" parent="TCsP9TbFolHiqnpfsmcs-1"><mxGeometry x="415" y="940" width="140" height="50" as="geometry"/></mxCell><mxCell id="J7jRR8AP0cpAzAHG7W-n-36" style="edgeStyle=orthogonalEdgeStyle;curved=0;rounded=1;sketch=0;orthogonalLoop=1;jettySize=auto;html=1;fontSize=19;fontColor=#FEFAE0;startArrow=classic;startFill=1;endArrow=none;endFill=0;strokeColor=#DDA15E;fillColor=#BC6C25;" edge="1" parent="TCsP9TbFolHiqnpfsmcs-1" source="J7jRR8AP0cpAzAHG7W-n-29" target="J7jRR8AP0cpAzAHG7W-n-25"><mxGeometry relative="1" as="geometry"><Array as="points"><mxPoint x="820" y="780"/><mxPoint x="655" y="780"/></Array></mxGeometry></mxCell><mxCell id="HJ40Izc7643Xr3awIv0s-14" style="edgeStyle=orthogonalEdgeStyle;curved=0;rounded=1;sketch=0;orthogonalLoop=1;jettySize=auto;html=1;fontSize=19;fontColor=#FEFAE0;startArrow=none;startFill=0;endArrow=classic;endFill=1;strokeColor=#DDA15E;fillColor=#BC6C25;" edge="1" parent="TCsP9TbFolHiqnpfsmcs-1" source="J7jRR8AP0cpAzAHG7W-n-29"><mxGeometry relative="1" as="geometry"><mxPoint x="1110" y="200" as="targetPoint"/><Array as="points"><mxPoint x="815" y="1090"/><mxPoint x="1110" y="1090"/></Array></mxGeometry></mxCell><mxCell id="J7jRR8AP0cpAzAHG7W-n-29" value="SendTo" style="html=1;rounded=0;sketch=0;fontColor=#FEFAE0;strokeColor=#DDA15E;fillColor=#BC6C25;" vertex="1" parent="TCsP9TbFolHiqnpfsmcs-1"><mxGeometry x="745" y="940" width="140" height="50" as="geometry"/></mxCell><mxCell id="J7jRR8AP0cpAzAHG7W-n-33" style="edgeStyle=orthogonalEdgeStyle;curved=0;rounded=1;sketch=0;orthogonalLoop=1;jettySize=auto;html=1;fontSize=19;fontColor=#FEFAE0;startArrow=classic;startFill=1;endArrow=none;endFill=0;strokeColor=#DDA15E;fillColor=#BC6C25;" edge="1" parent="TCsP9TbFolHiqnpfsmcs-1" source="J7jRR8AP0cpAzAHG7W-n-30"><mxGeometry relative="1" as="geometry"><mxPoint x="650" y="640.0000000000002" as="targetPoint"/><Array as="points"><mxPoint x="990" y="780"/><mxPoint x="650" y="780"/></Array></mxGeometry></mxCell><mxCell id="HJ40Izc7643Xr3awIv0s-19" style="edgeStyle=orthogonalEdgeStyle;curved=0;rounded=1;sketch=0;orthogonalLoop=1;jettySize=auto;html=1;fontSize=19;fontColor=#FEFAE0;startArrow=none;startFill=0;endArrow=classic;endFill=1;strokeColor=#DDA15E;fillColor=#BC6C25;" edge="1" parent="TCsP9TbFolHiqnpfsmcs-1" source="J7jRR8AP0cpAzAHG7W-n-30"><mxGeometry relative="1" as="geometry"><mxPoint x="1100" y="210" as="targetPoint"/></mxGeometry></mxCell><mxCell id="J7jRR8AP0cpAzAHG7W-n-30" value="Help" style="html=1;rounded=0;sketch=0;fontColor=#FEFAE0;strokeColor=#DDA15E;fillColor=#BC6C25;" vertex="1" parent="TCsP9TbFolHiqnpfsmcs-1"><mxGeometry x="915" y="940" width="140" height="50" as="geometry"/></mxCell><mxCell id="J7jRR8AP0cpAzAHG7W-n-32" style="edgeStyle=orthogonalEdgeStyle;curved=0;rounded=1;sketch=0;orthogonalLoop=1;jettySize=auto;html=1;fontSize=19;fontColor=#FEFAE0;startArrow=classic;startFill=1;endArrow=none;endFill=0;strokeColor=#DDA15E;fillColor=#BC6C25;" edge="1" parent="TCsP9TbFolHiqnpfsmcs-1" source="J7jRR8AP0cpAzAHG7W-n-31"><mxGeometry relative="1" as="geometry"><mxPoint x="650" y="650.0000000000002" as="targetPoint"/><Array as="points"><mxPoint x="330" y="780"/><mxPoint x="650" y="780"/></Array></mxGeometry></mxCell><mxCell id="HJ40Izc7643Xr3awIv0s-16" style="edgeStyle=orthogonalEdgeStyle;curved=0;rounded=1;sketch=0;orthogonalLoop=1;jettySize=auto;html=1;fontSize=19;fontColor=#FEFAE0;startArrow=none;startFill=0;endArrow=classic;endFill=1;strokeColor=#DDA15E;fillColor=#BC6C25;" edge="1" parent="TCsP9TbFolHiqnpfsmcs-1" source="J7jRR8AP0cpAzAHG7W-n-31"><mxGeometry relative="1" as="geometry"><mxPoint x="190" y="280" as="targetPoint"/></mxGeometry></mxCell><mxCell id="J7jRR8AP0cpAzAHG7W-n-31" value="ListUser" style="html=1;rounded=0;sketch=0;fontColor=#FEFAE0;strokeColor=#DDA15E;fillColor=#BC6C25;" vertex="1" parent="TCsP9TbFolHiqnpfsmcs-1"><mxGeometry x="255" y="940" width="140" height="50" as="geometry"/></mxCell><mxCell id="J7jRR8AP0cpAzAHG7W-n-38" value="ProcessData" style="html=1;rounded=0;sketch=0;fontColor=#FEFAE0;strokeColor=#DDA15E;fillColor=#BC6C25;" vertex="1" parent="TCsP9TbFolHiqnpfsmcs-1"><mxGeometry x="585" y="450" width="140" height="50" as="geometry"/></mxCell><mxCell id="J7jRR8AP0cpAzAHG7W-n-39" value="" style="edgeStyle=orthogonalEdgeStyle;curved=0;rounded=1;sketch=0;orthogonalLoop=1;jettySize=auto;html=1;entryX=0.5;entryY=1;entryDx=0;entryDy=0;fontSize=19;fontColor=#FEFAE0;startArrow=classic;startFill=1;endArrow=none;endFill=0;strokeColor=#DDA15E;fillColor=#BC6C25;" edge="1" parent="TCsP9TbFolHiqnpfsmcs-1" source="J7jRR8AP0cpAzAHG7W-n-25" target="J7jRR8AP0cpAzAHG7W-n-38"><mxGeometry relative="1" as="geometry"><mxPoint x="655" y="590" as="sourcePoint"/><mxPoint x="655" y="320" as="targetPoint"/></mxGeometry></mxCell><mxCell id="J7jRR8AP0cpAzAHG7W-n-40" value="ClientMap" style="html=1;rounded=0;sketch=0;fontColor=#FEFAE0;strokeColor=#DDA15E;fillColor=#BC6C25;" vertex="1" parent="TCsP9TbFolHiqnpfsmcs-1"><mxGeometry x="160" y="220" width="110" height="50" as="geometry"/></mxCell><mxCell id="HJ40Izc7643Xr3awIv0s-1" value="JSON" style="html=1;rounded=0;sketch=0;fontSize=19;fontColor=#FEFAE0;strokeColor=#DDA15E;fillColor=#BC6C25;gradientColor=none;" vertex="1" parent="TCsP9TbFolHiqnpfsmcs-1"><mxGeometry x="1230" y="180" width="110" height="50" as="geometry"/></mxCell><mxCell id="HJ40Izc7643Xr3awIv0s-4" value="" style="edgeStyle=orthogonalEdgeStyle;curved=0;rounded=1;sketch=0;orthogonalLoop=1;jettySize=auto;html=1;fontSize=19;fontColor=#FEFAE0;startArrow=none;startFill=0;endArrow=classic;endFill=1;strokeColor=#DDA15E;fillColor=#BC6C25;" edge="1" parent="TCsP9TbFolHiqnpfsmcs-1" source="J7jRR8AP0cpAzAHG7W-n-16" target="J7jRR8AP0cpAzAHG7W-n-3"><mxGeometry relative="1" as="geometry"><mxPoint x="645.98" y="270" as="targetPoint"/><mxPoint x="1730" y="320" as="sourcePoint"/><Array as="points"><mxPoint x="646" y="320"/></Array></mxGeometry></mxCell><mxCell id="HJ40Izc7643Xr3awIv0s-2" value="Message" style="html=1;rounded=0;sketch=0;fontSize=19;fontColor=#FEFAE0;strokeColor=#DDA15E;fillColor=#BC6C25;gradientColor=none;" vertex="1" parent="TCsP9TbFolHiqnpfsmcs-1"><mxGeometry x="980" y="295" width="110" height="50" as="geometry"/></mxCell><mxCell id="HJ40Izc7643Xr3awIv0s-0" value="JSON" style="html=1;rounded=0;sketch=0;fontSize=19;fontColor=#FEFAE0;strokeColor=#DDA15E;fillColor=#BC6C25;gradientColor=none;" vertex="1" parent="TCsP9TbFolHiqnpfsmcs-1"><mxGeometry x="1230" y="290" width="110" height="50" as="geometry"/></mxCell><mxCell id="HJ40Izc7643Xr3awIv0s-9" value="parsing command" style="text;strokeColor=none;fillColor=none;align=left;verticalAlign=top;spacingLeft=4;spacingRight=4;overflow=hidden;rotatable=0;points=[[0,0.5],[1,0.5]];portConstraint=eastwest;rounded=0;sketch=0;fontSize=19;fontColor=#FEFAE0;" vertex="1" parent="TCsP9TbFolHiqnpfsmcs-1"><mxGeometry x="660" y="710" width="170" height="26" as="geometry"/></mxCell><mxCell id="HJ40Izc7643Xr3awIv0s-10" value="pattern Command" style="text;strokeColor=none;fillColor=none;align=left;verticalAlign=top;spacingLeft=4;spacingRight=4;overflow=hidden;rotatable=0;points=[[0,0.5],[1,0.5]];portConstraint=eastwest;rounded=0;sketch=0;fontSize=19;fontColor=#FEFAE0;" vertex="1" parent="TCsP9TbFolHiqnpfsmcs-1"><mxGeometry x="670" y="550" width="170" height="26" as="geometry"/></mxCell><mxCell id="HJ40Izc7643Xr3awIv0s-11" value="add" style="text;strokeColor=none;fillColor=none;align=left;verticalAlign=top;spacingLeft=4;spacingRight=4;overflow=hidden;rotatable=0;points=[[0,0.5],[1,0.5]];portConstraint=eastwest;rounded=0;sketch=0;fontSize=19;fontColor=#FEFAE0;" vertex="1" parent="TCsP9TbFolHiqnpfsmcs-1"><mxGeometry x="400" y="204" width="50" height="26" as="geometry"/></mxCell><mxCell id="HJ40Izc7643Xr3awIv0s-13" value="remove" style="text;strokeColor=none;fillColor=none;align=left;verticalAlign=top;spacingLeft=4;spacingRight=4;overflow=hidden;rotatable=0;points=[[0,0.5],[1,0.5]];portConstraint=eastwest;rounded=0;sketch=0;fontSize=19;fontColor=#FEFAE0;" vertex="1" parent="TCsP9TbFolHiqnpfsmcs-1"><mxGeometry x="225" y="550" width="85" height="40" as="geometry"/></mxCell><mxCell id="HJ40Izc7643Xr3awIv0s-17" value="iterator" style="text;strokeColor=none;fillColor=none;align=left;verticalAlign=top;spacingLeft=4;spacingRight=4;overflow=hidden;rotatable=0;points=[[0,0.5],[1,0.5]];portConstraint=eastwest;rounded=0;sketch=0;fontSize=19;fontColor=#FEFAE0;" vertex="1" parent="TCsP9TbFolHiqnpfsmcs-1"><mxGeometry x="100" y="880" width="85" height="40" as="geometry"/></mxCell></root></mxGraphModel></diagram></mxfile>